<svg xmlns="http://www.w3.org/2000/svg" viewBox="0 0 1031.23 396.85"><title>logo</title><path d="M305.78,89.17c104,0,188.25,84.29,188.25,188.26S409.75,465.68,305.78,465.68,117.53,381.39,117.53,277.43,201.81,89.17,305.78,89.17Z" transform="translate(-107.35 -79)" style="fill:#fff;fill-rule:evenodd"/><path d="M603.92,213.23a40.6,40.6,0,0,0-2.69,3.08L590,228.84A43,43,0,0,1,601,240.93l8.58,12.82c3.13,0,8.71.17,11.36,1.87,2.36,1.53,3,4.27,3,6.93,0,6.26-3.68,8.91-9.7,8.91h-7.12c-1.91,0-4.62-.18-6.23-1.31-1.85-1.3-4.42-5.16-5.68-7l-8.19-12.25c-3.15-4.71-8.4-11.28-14.68-11.28H568v14.15q.66-.06,1.32-.06c6.09,0,11,2.1,11,8.86,0,2.61-.61,5.3-2.83,6.91-2.53,1.84-7.69,2-10.7,2h-14c-3,0-8.19-.2-10.77-2-2.29-1.6-2.92-4.31-2.92-7s.67-5.13,2.86-6.72c2.42-1.75,6.63-2,9.59-2.05V212.68c-.49,0-1,.06-1.48.06-6.1,0-11-2.11-11-8.94,0-2.6.61-5.26,2.83-6.86,2.53-1.81,7.71-2,10.7-2h14c3,0,8.21.18,10.78,2,2.25,1.59,2.91,4.23,2.91,6.86s-.66,5.15-2.83,6.77c-2.36,1.77-6.54,2.07-9.46,2.09v9.2h2.14a8.89,8.89,0,0,0,4-.77c1.47-.71,3.53-3.14,4.56-4.38l10.69-12.89c5.24-6.33,12.36-8.87,20.47-8.87,7,0,10.66,3.37,10.66,10.39,0,3.29-.06,10.65-1.8,13.52-1.41,2.33-3.89,3-6.49,3-5.32,0-7.5-4-8.26-8.68Zm75.61,54.48a50.69,50.69,0,0,1-12.89,4.8,59.24,59.24,0,0,1-13.25,1.69c-7.84,0-15.22-2-21.09-7.36-4.77-4.35-8.12-9.72-8.12-16.35,0-8.2,4.43-14.86,10.35-20.18,7.86-7.07,18.23-9.31,28.54-9.31a96.83,96.83,0,0,1,16.46,1.61V218.8a7.5,7.5,0,0,0-3-6.15c-2.68-2.15-8.25-2.39-11.52-2.39-5.94,0-12.57,1.5-18.3,3a27.67,27.67,0,0,1-6.64,1.09,7.36,7.36,0,0,1-5.63-2.55,9.42,9.42,0,0,1-2.31-6.53,8.88,8.88,0,0,1,.81-3.87,7.09,7.09,0,0,1,2.27-2.68,25.12,25.12,0,0,1,5.93-2.32,102.06,102.06,0,0,1,12.1-2.81,66.66,66.66,0,0,1,11.19-1.06c8.19,0,16.84,1.57,23.28,7,5.87,4.93,8.32,11.54,8.32,19.13v35.09h2.43c2.83,0,6.45.39,8.6,2.45a9.37,9.37,0,0,1,0,12.81c-2.15,2.06-5.77,2.45-8.6,2.45H679.82a.29.29,0,0,1-.29-.28v-3.47Zm55.19-68.33a35.62,35.62,0,0,1,21.45-6.83c7.83,0,15.43,1.7,21.89,6.31A20.14,20.14,0,0,1,787,216.17c0,5.38-2.59,10.18-5.91,14.24,5.87,4.44,9.26,10.24,9.26,17.71,0,7.62-3.29,13.66-9.25,18.34-7.45,5.83-18.07,7.23-27.25,7.23a79.7,79.7,0,0,1-29.93-6.05c-5.53-2.23-15.17-6.78-15.17-13.92a9.08,9.08,0,0,1,2.58-6.6,7.71,7.71,0,0,1,5.49-2.63c2.24,0,4.72,1.24,6.6,2.36,9.22,5.48,19.28,8.78,30.06,8.78,4.7,0,9.91-.49,14.28-2.34,2.37-1,5.43-2.76,5.43-5.72,0-6.71-16.93-6.63-21-6.63h-1.63c-3,0-8.16-.17-10.71-2-2.25-1.58-2.89-4.25-2.89-6.86,0-6.42,4-8.89,10-8.89,3.89,0,22.82.17,22.82-6.43,0-2.08-2.37-3.48-4-4.26-3.5-1.64-8.43-1.94-12.24-1.94a29.74,29.74,0,0,0-11.77,2.12c-4.09,1.77-5.83,6.78-6.67,10.8-.9,4.3-2.88,9.37-8,9.37a7.22,7.22,0,0,1-5.42-2.35,8.83,8.83,0,0,1-2.26-6.31c0-1.42,0-2.84.08-4.28.19-2.55.24-5.13.24-7.69s0-4.84-.12-7.26a37.67,37.67,0,0,0-.35-4.24c-.22-1.28-.42-2.57-.58-3.87a16.94,16.94,0,0,1-.2-2.26,8.08,8.08,0,0,1,2.2-5.39,7.15,7.15,0,0,1,5.61-2.52,6.45,6.45,0,0,1,5.69,2.61c1.56,2.29,2.36,7.12,2.77,10Zm126.59,13.85a38.64,38.64,0,0,0-2.7,3.08l-11.25,12.53a43,43,0,0,1,11.06,12.09L867,253.75c3.13,0,8.72.17,11.36,1.87,2.36,1.53,3,4.27,3,6.93,0,6.26-3.67,8.91-9.7,8.91h-7.12c-1.91,0-4.62-.18-6.23-1.31-1.85-1.3-4.42-5.16-5.68-7l-8.19-12.25c-3.14-4.71-8.4-11.28-14.68-11.28h-4.39v14.15c.43,0,.87-.06,1.31-.06,6.09,0,11,2.1,11,8.86,0,2.61-.61,5.3-2.83,6.91-2.53,1.84-7.69,2-10.7,2h-14c-3,0-8.19-.2-10.77-2-2.29-1.6-2.92-4.31-2.92-7s.67-5.13,2.86-6.72c2.42-1.75,6.63-2,9.59-2.05V212.68q-.74.06-1.47.06c-6.11,0-11-2.11-11-8.94,0-2.6.62-5.26,2.83-6.86,2.53-1.81,7.71-2,10.7-2h14c3,0,8.2.18,10.77,2,2.26,1.59,2.91,4.23,2.91,6.86s-.66,5.15-2.83,6.77c-2.36,1.77-6.54,2.07-9.45,2.09v9.2h2.13a8.86,8.86,0,0,0,4-.77c1.47-.71,3.53-3.14,4.56-4.38l10.69-12.89C852,197.49,859.08,195,867.2,195c6.94,0,10.65,3.37,10.65,10.39,0,3.29-.06,10.65-1.8,13.52-1.41,2.33-3.89,3-6.49,3-5.32,0-7.49-4-8.25-8.68ZM964.6,234.55a39.48,39.48,0,0,1-5.14,19.28,37.38,37.38,0,0,1-15.29,14.85,43.45,43.45,0,0,1-42.23.09,37.83,37.83,0,0,1-15.29-14.83,39.36,39.36,0,0,1-5.25-19.57A42.86,42.86,0,0,1,886.72,214a39.21,39.21,0,0,1,15.35-15.74,41,41,0,0,1,42,.14,38.74,38.74,0,0,1,15.35,15.78,43.58,43.58,0,0,1,5.16,20.36Zm11.21,19.2V212.66h-2.27c-6.1,0-11-2.1-11-8.86s4.87-8.85,11-8.85h37.14c14,0,31.42,2.91,31.42,20.28,0,6.47-3.11,11.83-7.64,16.24,7.91,3.14,13.86,8.45,13.86,17.48a20.69,20.69,0,0,1-7.17,16.18c-6,5.33-15.88,6.33-23.56,6.33H973.54c-6.1,0-11-2.12-11-8.94s4.93-8.77,11-8.77Zm132.69,14a50.69,50.69,0,0,1-12.89,4.8,59.24,59.24,0,0,1-13.25,1.69c-7.84,0-15.22-2-21.09-7.36-4.78-4.35-8.12-9.72-8.12-16.35,0-8.2,4.43-14.86,10.35-20.18,7.86-7.07,18.23-9.31,28.53-9.31a96.85,96.85,0,0,1,16.47,1.61V218.8a7.53,7.53,0,0,0-3-6.15c-2.68-2.15-8.25-2.39-11.52-2.39-5.94,0-12.58,1.5-18.3,3a27.75,27.75,0,0,1-6.64,1.09,7.35,7.35,0,0,1-5.63-2.55,9.37,9.37,0,0,1-2.31-6.53,9,9,0,0,1,.8-3.87,7.21,7.21,0,0,1,2.28-2.68,25,25,0,0,1,5.93-2.32,102.06,102.06,0,0,1,12.1-2.81,66.66,66.66,0,0,1,11.19-1.06c8.19,0,16.84,1.57,23.28,7,5.87,4.93,8.32,11.54,8.32,19.13v35.09h2.43c2.83,0,6.45.39,8.6,2.45a9.37,9.37,0,0,1,0,12.81c-2.15,2.06-5.77,2.45-8.6,2.45h-18.67a.29.29,0,0,1-.28-.28v-3.47Zm-429-27a85.48,85.48,0,0,0-17.39-1.94,27.22,27.22,0,0,0-16.56,5c-2,1.48-4.24,3.68-4.24,6.37a4.3,4.3,0,0,0,2,3.68c3,2.12,6.9,2.69,10.49,2.69a41.92,41.92,0,0,0,13-2.41,46.25,46.25,0,0,0,12.75-6.45v-7Zm268.55-6a23.5,23.5,0,0,0-5.47-15.08,25.09,25.09,0,0,0-44.69,15.17c0,5.94,3,10.84,7.22,14.85a26.51,26.51,0,0,0,35.72,0c4.22-4,7.22-9,7.22-14.94Zm44.25-10.54h14.42c3.1,0,13.67,0,16.27-1.75a5.08,5.08,0,0,0,2.56-4.25c0-5.44-12.22-5.43-15.59-5.43H992.33v11.43Zm0,29.66h24.44c4.12,0,15-.19,15-6.4a4.26,4.26,0,0,0-3.08-4.39,23,23,0,0,0-5.41-.86c-3.28-.25-6.61-.3-9.89-.3H992.33v11.95Zm116.17-13.09a85.58,85.58,0,0,0-17.4-1.94,27.21,27.21,0,0,0-16.55,5c-2,1.48-4.25,3.68-4.25,6.37a4.3,4.3,0,0,0,2,3.68c3,2.12,6.91,2.69,10.5,2.69a41.92,41.92,0,0,0,13-2.41,46.39,46.39,0,0,0,12.75-6.45v-7Z" transform="translate(-107.35 -79)" style="fill:#201600;fill-rule:evenodd"/><path d="M624.73,306.59H591.16v41.09h2.27c6.05,0,11,2,11,8.77s-4.87,8.94-11,8.94H573.81c-6.1,0-11-2.12-11-8.94,0-2.6.67-5.12,2.86-6.72s6.09-2,8.94-2.05V306.56c-5.33-.51-8.45-3.25-8.45-8.83,0-6.76,4.87-8.85,11-8.85h61.58c6.09,0,11,2.09,11,8.85,0,5.58-3.12,8.32-8.46,8.83v41.12c2.85,0,6.57.34,8.92,2s2.89,4.18,2.89,6.78c0,6.82-4.87,8.94-11,8.94H622.47c-6.11,0-11-2.12-11-8.94s4.93-8.77,11-8.77h2.26V306.59Zm117.38,21.89A39.48,39.48,0,0,1,737,347.76a37.32,37.32,0,0,1-15.29,14.85,43.45,43.45,0,0,1-42.23.09,37.83,37.83,0,0,1-15.29-14.83,39.35,39.35,0,0,1-5.25-19.56,42.88,42.88,0,0,1,5.33-20.37,39.18,39.18,0,0,1,15.34-15.74,41,41,0,0,1,42,.14A38.72,38.72,0,0,1,737,308.12a43.58,43.58,0,0,1,5.16,20.36Zm81.72-21.89v41.09c5.93.06,11,2,11,8.77,0,2.62-.62,5.31-2.86,6.92-2.57,1.83-7.79,2-10.83,2H810c-3,0-8.1-.2-10.67-2-2.27-1.59-2.86-4.33-2.86-6.95,0-6.68,4.93-8.71,10.85-8.77V306.59H787v30.77c0,7.88-1.38,16.63-6.88,22.68-4.94,5.44-11.49,7.58-18.74,7.58-4.69,0-15.94-.29-15.94-7.2v-8.83c0-2.92.16-7.7,1.74-10.26,1.33-2.17,3.55-2.91,6-2.91,6.18,0,7.72,5.64,8,10.82l1.4.07c2.35,0,4.56-.64,6-2.6,1.72-2.34,1.94-6.62,1.94-9.4V306.59c-3.19,0-8.74-.2-11.38-1.91-2.36-1.52-3-4.31-3-6.95s.62-5.27,2.86-6.86c2.56-1.81,7.81-2,10.83-2h51.36c3,0,8.2.18,10.77,2,2.26,1.59,2.92,4.23,2.92,6.86a8.47,8.47,0,0,1-2.62,6.55c-2.13,2-5.6,2.32-8.39,2.31Zm76.68,41.09V336.25h-7.15c-13.35,6.07-23.79,17-31.92,29a.27.27,0,0,1-.23.12h-9c-6.06,0-10.86-2.12-10.86-8.83,0-2.58.62-5.19,2.77-6.82s6.17-2.05,9-2.06a59,59,0,0,1,10.73-12.39c-5.7-1.24-11.14-3.73-14.66-8.56a24.77,24.77,0,0,1-4.79-15c0-18.32,14.93-22.85,30.78-22.85H919.3c6.12,0,11,2.11,11,8.88s-4.95,8.83-11,8.83H917v41.09h2.22c6.06,0,11,2,11,8.8s-4.87,8.91-10.94,8.91H896.94c-6.07,0-10.94-2.12-10.94-8.91s4.85-8.8,10.91-8.8Zm94.8-12.29H961.74v12.29h1.31c6,0,11,2,11,8.77s-4.87,8.94-11,8.94H944.39c-6.1,0-11-2.12-11-8.94,0-2.6.67-5.12,2.85-6.72,2.33-1.7,6.1-2,9-2.05V306.56c-5.34-.51-8.45-3.25-8.45-8.83,0-6.76,4.87-8.85,11-8.85h15.31c6.1,0,11,2.09,11,8.85s-4.87,8.86-11,8.86h-1.31v11.09h33.57V306.59H994c-6.1,0-11-2.1-11-8.86s4.87-8.85,11-8.85h15.31c6.1,0,11,2.09,11,8.85,0,5.58-3.12,8.32-8.45,8.83v41.12c2.84,0,6.57.34,8.92,2s2.88,4.18,2.88,6.78c0,6.82-4.87,8.94-11,8.94H994c-6.1,0-11-2.12-11-8.94s4.93-8.77,11-8.77h1.31V335.39Zm89.37,26.25a50.69,50.69,0,0,1-12.89,4.8,59.24,59.24,0,0,1-13.25,1.69c-7.84,0-15.22-2-21.09-7.36-4.77-4.35-8.12-9.72-8.12-16.35,0-8.2,4.43-14.85,10.36-20.18,7.85-7.07,18.22-9.3,28.53-9.3a96.82,96.82,0,0,1,16.46,1.6v-3.81a7.53,7.53,0,0,0-3-6.15c-2.69-2.15-8.25-2.39-11.53-2.39-5.94,0-12.57,1.5-18.29,3a27.75,27.75,0,0,1-6.64,1.09,7.37,7.37,0,0,1-5.64-2.55,9.41,9.41,0,0,1-2.3-6.53,8.9,8.9,0,0,1,.8-3.87,7.09,7.09,0,0,1,2.27-2.68,25.29,25.29,0,0,1,5.93-2.32,102.52,102.52,0,0,1,12.1-2.81,66.66,66.66,0,0,1,11.19-1.06c8.19,0,16.84,1.57,23.29,7,5.87,4.93,8.31,11.54,8.31,19.13v35.09h2.43c2.83,0,6.45.39,8.6,2.45a9.37,9.37,0,0,1,0,12.81c-2.15,2.06-5.77,2.45-8.6,2.45H1085a.29.29,0,0,1-.29-.28v-3.47ZM725.59,328.56a23.54,23.54,0,0,0-5.46-15.08,25.09,25.09,0,0,0-44.7,15.17c0,5.94,3,10.84,7.23,14.85a26.49,26.49,0,0,0,35.71,0c4.22-4,7.22-9,7.22-14.94Zm174.92-22H876c-4,0-15.16.14-15.16,6.23a4.46,4.46,0,0,0,3.1,4.37,20.83,20.83,0,0,0,5.44,1c3.31.29,6.69.34,10,.34h21.09v-12Zm184.17,28a85.48,85.48,0,0,0-17.39-1.94,27.22,27.22,0,0,0-16.56,5c-2,1.48-4.24,3.68-4.24,6.37a4.3,4.3,0,0,0,2,3.68c3,2.12,6.9,2.69,10.49,2.69a41.92,41.92,0,0,0,13-2.41,46.25,46.25,0,0,0,12.75-6.45v-7Z" transform="translate(-107.35 -79)" style="fill:#201600;fill-rule:evenodd"/><path d="M305.78,79C415.37,79,504.2,167.84,504.2,277.43S415.37,475.85,305.78,475.85,107.35,387,107.35,277.43,196.19,79,305.78,79Zm30.65,187.41c4.32-6.84,8.34-14,12.21-21.05q7.89-14.46,15.07-29.33,4.41-9.12,8.5-18.39l2-4.48,1.07,4.77A72.9,72.9,0,0,0,378.36,208c2.56,6.68,8,17.66,13.52,23.7.84-3.37,2-6.84,3-10,1.94-5.85,4-11.67,6.18-17.45,19.77-53.44,13.1-36.13,60.74,10.34a199.17,199.17,0,0,1,14.25,16.29q3,3.66,6,7.38A180.56,180.56,0,1,0,191.17,416.94c4.68-1,9.39-2.18,13.67-3.37a252.81,252.81,0,0,0,54.31-22.44c58.32-32.36,99.5-83.73,124.77-145a90.1,90.1,0,0,0-7.58-10.88c-.69-.9-1.44-1.88-2.11-2.92A147.38,147.38,0,0,1,367,251.12a212.26,212.26,0,0,1-24.14,40.26c-12.25,16.13-73.11,75.86-118,78.53l1.24-.74c17.9-10.58,37-20.9,53.56-33.48,19.93-15.15,34.5-33.21,48.23-53.93a94.67,94.67,0,0,0-13.36-12,171.72,171.72,0,0,1-15.65,17.68c-11.85,11.87-25.93,23-41.31,29.86a73.37,73.37,0,0,1-29.69,6.86l-9.09,0,8.53-3.14a97.07,97.07,0,0,0,9.27-4.11A177.2,177.2,0,0,0,259,303.81c22.12-15.25,40.77-35.16,53.29-59l1-1.94,1.55,1.55c3.41,3.41,6.69,7,10,10.52s7.7,8.43,11.62,11.5Zm149.74,3.87q-5.12-7.95-10.35-15.8c-11.77-17.65-32.73-37.66-48.65-51.64-1.92-1.68-4.4-3.74-6.46-5.77a292,292,0,0,1-10.56,31.64A384.37,384.37,0,0,1,374.47,299c-40.87,63.12-98.55,108.47-173.69,122.22-1,.21-2.17.42-3.44.61A179.77,179.77,0,0,0,305.78,458c99.71,0,180.55-80.83,180.55-180.54,0-2.4-.06-4.78-.16-7.15Z" transform="translate(-107.35 -79)" style="fill:#4d69ae;fill-rule:evenodd"/><path d="M256.48,155.41c1.61.55,3.19,1.16,4.72,1.85-.05,1.5-.13,2.94-.22,4.31-.2,2.93-.49,5.91-.88,8.89,1.83-1.39,3.67-2.74,5.52-4,1.63-1.14,3.41-2.34,5.31-3.55q2,1.47,3.89,3.11a88.55,88.55,0,0,0-14.43,8.38c-1.48,1-3,2.11-4.42,3.23.31-2.4.54-4.79.7-7.14a83.21,83.21,0,0,0-.19-15.06Zm35.62,40.47c.33,1.64.58,3.31.76,5-1.32.7-2.61,1.35-3.84,2-2.63,1.29-5.36,2.53-8.14,3.69,2.12.88,4.21,1.81,6.25,2.77,1.8.84,3.73,1.78,5.73,2.82-.18,1.67-.43,3.31-.75,4.93a88,88,0,0,0-14.47-8.31q-2.46-1.16-5-2.22c2.23-.92,4.42-1.92,6.53-3a84.34,84.34,0,0,0,12.94-7.69ZM274.87,247c-1.27,1.11-2.59,2.17-4,3.16-1.26-.79-2.47-1.58-3.61-2.34-2.43-1.64-4.87-3.38-7.26-5.2.29,2.27.53,4.54.73,6.78.17,2,.32,4.14.41,6.39-1.51.68-3.06,1.28-4.64,1.82a88.32,88.32,0,0,0,0-16.7c-.15-1.8-.34-3.62-.58-5.44,1.92,1.46,3.87,2.86,5.82,4.17A84.67,84.67,0,0,0,274.87,247ZM222,257.58q-2.42-.81-4.72-1.85c.05-1.49.13-2.94.23-4.31.2-2.92.48-5.91.87-8.89-1.82,1.39-3.67,2.74-5.51,4-1.64,1.14-3.42,2.34-5.32,3.55q-2-1.47-3.89-3.11a87.83,87.83,0,0,0,14.43-8.38c1.48-1,3-2.11,4.42-3.22-.31,2.39-.54,4.78-.7,7.13a84.13,84.13,0,0,0,.19,15.06Zm-35.62-40.46c-.33-1.65-.58-3.32-.76-5,1.32-.7,2.61-1.35,3.84-1.95,2.63-1.29,5.36-2.53,8.14-3.69-2.12-.88-4.21-1.81-6.24-2.76-1.81-.85-3.74-1.79-5.74-2.83.18-1.67.43-3.31.75-4.93a88.43,88.43,0,0,0,14.47,8.31q2.46,1.16,5,2.22c-2.23.92-4.41,1.92-6.53,2.95a83.65,83.65,0,0,0-12.94,7.7ZM203.65,166c1.26-1.11,2.58-2.17,3.95-3.16,1.26.79,2.47,1.58,3.61,2.34,2.43,1.64,4.87,3.38,7.26,5.21-.29-2.28-.53-4.55-.72-6.79-.17-2-.32-4.14-.42-6.39,1.51-.68,3.06-1.28,4.64-1.82a88.32,88.32,0,0,0,0,16.7c.15,1.8.35,3.62.58,5.45-1.91-1.47-3.87-2.87-5.82-4.18A84.54,84.54,0,0,0,203.65,166Z" transform="translate(-107.35 -79)" style="fill:#e9a944;fill-rule:evenodd"/><path d="M239.26,201.54a5,5,0,1,1-5,5,5,5,0,0,1,5-5Z" transform="translate(-107.35 -79)" style="fill:#e9a944;fill-rule:evenodd"/><path d="M239.14,194.9c-2.17,0-5.27-11.55-6.31-23.69s-.12-24.89,6-27.28a1,1,0,0,1,.36-.05,2.63,2.63,0,0,1,.39.06c12.14,4.78,4.48,51-.4,51Z" transform="translate(-107.35 -79)" style="fill:#e9a944;fill-rule:evenodd"/><path d="M229.16,200.8c-1.09,1.88-12.64-1.21-23.68-6.38s-21.61-12.35-20.64-18.8a.89.89,0,0,1,.13-.34,1.87,1.87,0,0,1,.26-.3c10.2-8.14,46.37,21.59,43.93,25.82Z" transform="translate(-107.35 -79)" style="fill:#e9a944;fill-rule:evenodd"/><path d="M229.27,212.39c1.09,1.88-7.36,10.34-17.36,17.32s-21.5,12.54-26.6,8.47a.81.81,0,0,1-.23-.28,2.79,2.79,0,0,1-.14-.37c-1.94-12.91,41.89-29.37,44.33-25.14Z" transform="translate(-107.35 -79)" style="fill:#e9a944;fill-rule:evenodd"/><path d="M239.37,218.09c2.17,0,5.28,11.55,6.31,23.69s.12,24.89-6,27.28a1,1,0,0,1-.36.05,2.76,2.76,0,0,1-.4-.06c-12.14-4.78-4.48-51,.4-51Z" transform="translate(-107.35 -79)" style="fill:#e9a944;fill-rule:evenodd"/><path d="M249.35,212.19c1.09-1.88,12.64,1.21,23.68,6.38s21.61,12.35,20.64,18.8a.89.89,0,0,1-.13.34,1.81,1.81,0,0,1-.25.3c-10.21,8.14-46.38-21.59-43.94-25.82Z" transform="translate(-107.35 -79)" style="fill:#e9a944;fill-rule:evenodd"/><path d="M249.24,200.6c-1.09-1.88,7.36-10.34,17.36-17.31s21.5-12.55,26.6-8.48a.81.81,0,0,1,.23.28,2.79,2.79,0,0,1,.14.37c1.94,12.91-41.89,29.37-44.33,25.14Z" transform="translate(-107.35 -79)" style="fill:#e9a944;fill-rule:evenodd"/></svg>