<?xml version="1.0" encoding="UTF-8"?>
<!DOCTYPE svg PUBLIC "-//W3C//DTD SVG 1.1//EN" "http://www.w3.org/Graphics/SVG/1.1/DTD/svg11.dtd">
<!-- Creator: CorelDRAW 2019 (64-Bit) -->
<svg xmlns="http://www.w3.org/2000/svg" xml:space="preserve" width="88.9mm" height="50.8mm" version="1.1" style="shape-rendering:geometricPrecision; text-rendering:geometricPrecision; image-rendering:optimizeQuality; fill-rule:evenodd; clip-rule:evenodd"
viewBox="0 0 8890 5080"
 xmlns:xlink="http://www.w3.org/1999/xlink">
 <defs>
  <style type="text/css">
   <![CDATA[
    .fil0 {fill:#E62C54}
    .fil1 {fill:#0C54A0}
   ]]>
  </style>
 </defs>
 <g id="Слой_x0020_1">
  <metadata id="CorelCorpID_0Corel-Layer"/>
  <path class="fil0" d="M1850.91 451.4c845.5,0 1530.92,685.42 1530.92,1530.87 0,845.45 -685.42,1530.87 -1530.92,1530.87 -845.45,0 -1530.87,-685.42 -1530.87,-1530.87 0,-845.45 685.42,-1530.87 1530.87,-1530.87z"/>
  <path class="fil1" d="M5577.31 1896.28c49.23,29.34 65.49,93.47 36.15,142.75l-1315.98 2208.48c-29.38,49.24 -93.51,65.49 -142.74,36.15l53.27 -89.42 1316.02 -2208.53 53.28 -89.43zm-1675 2236.99c-49.24,-29.34 -65.49,-93.51 -36.1,-142.75l1315.97 -2208.48c29.34,-49.24 93.46,-65.49 142.7,-36.15l-53.28 89.43 -1315.97 2208.48 -53.32 89.47zm2513.22 -577.28c-124.87,-4.87 -227.87,-121.75 -281.11,-46.77 -16.56,99.04 149.47,61.71 241.49,161.37 -78.71,84.33 -169.98,104.97 -205.78,204.72 119.08,43.27 152.15,-73.83 284.18,-135.24 10.72,114.03 2.29,243.51 91.49,290.99 65.8,-81.03 -6.01,-182.01 7.34,-296.12 223.96,28.5 208.02,145.86 285.06,25.65l-241.84 -121.85c73.17,-106.51 168.14,-104.53 195.85,-239.11 -132.07,-1.93 -152.15,95.49 -282.77,146.88 -5.14,-88.42 -5.27,-227 -64.44,-285.55 -121.75,91.67 -14.01,129.75 -29.47,295.03zm-3990.17 -1431.22c16.25,-43.22 -15.15,40.23 0,0zm105.64 -64.61c-135.37,45.24 -163.83,13.09 -220.58,38.52 -68.79,30.88 -35.45,4.13 -61.89,59.12 69.05,49.24 40.1,32.85 144.2,11.6l99.7 -7.6c36.99,4.78 39.8,7.86 55.83,13.26 -21.17,117.67 -105.9,188.56 -65.97,280.98 79.28,-20.65 57.62,-10.33 96.01,-103.84 29.21,-71.2 29.74,-101.46 68.52,-149.64 133.57,106.73 96.54,205.07 246.8,182.76l-167.61 -248.34c122.55,-48.62 228.05,2.11 294.38,-104.76 -59.56,-58.68 -7.08,-41.41 -130.72,-25.34 -94.39,12.3 -87.84,22.53 -180.3,11.2 44.62,-122.32 107.56,-181 62.19,-295.38 -90,65.14 -96.58,163.22 -150.83,256.91 -60.26,-43.88 -68.87,-57.24 -115.87,-111.09 -79.8,-91.4 -20.9,-66.45 -117.62,-75.24 -1.98,129.05 85.08,130.63 143.76,266.88zm427.72 1482.53c-113.94,-3.52 -68.39,-34.53 -188.3,18.14 67.86,105.1 65.01,36.54 190.05,95.7 -75.32,87.15 -92.19,68.74 -84.37,164.1 108.71,9.27 79.19,-32.99 162.78,-109.68 46.2,100.63 22,108.45 111.47,142.93 51.3,-63.43 15.95,-80.29 -18.66,-181.53 122.23,-16.87 126.93,43.87 194.09,-47.22 -81.96,-86.13 -60.7,-7.47 -177.32,-69.27 58.47,-105.98 90.27,-81.87 62.73,-178.81 -91.76,-3.2 -80.25,46.56 -150.75,120.83 -61.58,-100.14 -25.38,-106.77 -123.24,-157.85 -50.16,110.33 -20.17,62.76 21.52,202.66zm3167.18 -1340.09c-129.26,30.35 -183.33,-6.1 -178.37,104.8l191.81 -8.78c-21.87,109.36 -83.58,170.2 17.22,203.62l81.61 -167.69c62.19,74.84 63.91,100.67 154.39,139.23 23.85,-105.85 -19.59,-105.81 -82.66,-197.17 118.76,-35.75 138.84,14.85 197.96,-90.04 -94.31,-45.11 -125.54,-6.33 -210.22,-17.13 42.39,-103.31 65.67,-99.05 30.88,-200.77 -103.97,63.12 -63.29,58.06 -118.02,161.81 -73.31,-54.38 -63.78,-105.99 -163.88,-127.86 -21.83,108.09 15.95,113.28 79.28,199.98zm-887.55 2491.7c-91.27,38.34 -109.71,28.9 -157.72,99.75 75.94,66.67 75.72,24.94 195.72,-20.56 12.38,103.09 -34.61,153.38 45.9,192.47 63.99,-40.36 45.94,-106.95 71.37,-189.97 87.01,80.38 61.8,88.33 170.51,96.55 1.76,-39.27 63.12,-51.74 -123.34,-159.14 82.27,-52.75 104.23,-45.06 163.79,-110.73 -64.7,-52.22 -6.28,-25.43 -86,-24.2 -61.14,0.93 -21.12,23.5 -113.8,19.37 5.84,-113.19 34.26,-95 -21.39,-194.88 -90.35,61.18 -52.67,82.92 -66.68,196.2 -120.48,-35.01 -78.4,-92.76 -205.47,-80.29 44.1,135.63 58.55,76.95 127.11,175.43zm-1388.79 -3119.31c-101.86,-29.65 -94.61,-51.44 -197.92,-22.53 51.74,113.14 46.52,58.41 161.95,116.92 -76.69,86.75 -105.15,47.96 -110.43,159.83 105.2,4.04 68.96,-22.57 175.48,-80.81 3.86,14.05 17.3,88.06 18.88,92.15 49.24,127.64 -7.02,41.99 65.84,85.73 63.87,-92.1 -3.07,-73.96 28.64,-191.46 102.96,32.07 88.24,62.59 187.68,28.03 -45.72,-104.5 -63.9,-69.8 -167.83,-123.03 82.58,-65.01 107.88,-58.16 128.96,-149.65 -43.44,-8.96 -36.81,-54.68 -183.46,74.72 -32.51,-99.23 3.38,-136.03 -86.88,-183.86 -61.14,60.48 -19.02,117.8 -20.91,193.96zm1518.89 2235.93l41.91 101.51c123.46,-39.93 128.82,-36.19 78.57,-152.72 -69.7,0.35 -79.72,-6.19 -120.48,51.21zm-2118.83 -2244.23c90.48,-34.57 71.02,-15.11 88.24,-116.35 -76.56,-45.55 -46.91,-46.12 -118.07,-25.44 -36.76,86.27 -56.96,38.79 29.83,141.79zm2669.71 2942.52c87.23,29.91 67.12,31.93 123.03,-39.45l-23.06 -80.46c-106.07,-5.67 -152.32,29.29 -99.97,119.91zm-2083.08 -1968.18c93.56,81.91 123.47,53.71 145.87,-62.94 -82.31,-52.19 -149.12,-43.88 -145.87,62.94zm-489.21 395.7c2.5,90.13 -23.94,25.6 38.39,116.88l107.13 -42.74 -39.93 -105.28 -105.59 31.14zm3271.63 -25.87c39.97,96.01 70.72,132.47 151.58,48.14l-40.58 -106.6 -111 58.46zm-4000.44 95.66l115.6 -46.91 -52.05 -108.14c-108.62,22.32 -106.46,66.24 -63.55,155.05zm1571.51 -2016.71l44.54 117.05 112.4 -58.73 -55.17 -100.58 -101.77 42.26zm-841.38 1426.7c88.85,19.63 26.92,33.77 113.89,-25.17l-32.81 -108.36c-94.92,28.37 -127.69,51.78 -81.08,133.53zm2412.06 606.74c6.94,94.48 -26.26,30.22 45.33,104.28 109.28,-16.74 118.72,-46.03 52.88,-133.79l-98.21 29.51zm1370.96 1044.44l108.01 -29.29 -41.42 -114.29c-103.7,27.41 -132.47,63.25 -66.59,143.58z"/>
 </g>
</svg>
