<?xml version="1.0" encoding="UTF-8"?>
<!DOCTYPE svg PUBLIC "-//W3C//DTD SVG 1.1//EN" "http://www.w3.org/Graphics/SVG/1.1/DTD/svg11.dtd">
<!-- Creator: CorelDRAW 2019 (64-Bit) -->
<svg xmlns="http://www.w3.org/2000/svg" xml:space="preserve" width="88.9mm" height="50.8mm" version="1.1" style="shape-rendering:geometricPrecision; text-rendering:geometricPrecision; image-rendering:optimizeQuality; fill-rule:evenodd; clip-rule:evenodd"
viewBox="0 0 8890 5080"
 xmlns:xlink="http://www.w3.org/1999/xlink">
 <defs>
  <style type="text/css">
   <![CDATA[
    .fil0 {fill:#E62C54}
    .fil1 {fill:#0C54A0}
   ]]>
  </style>
 </defs>
 <g id="Слой_x0020_1">
  <metadata id="CorelCorpID_0Corel-Layer"/>
  <path class="fil0" d="M1850.91 451.4c845.5,0 1530.92,685.42 1530.92,1530.87 0,845.45 -685.42,1530.87 -1530.92,1530.87 -845.45,0 -1530.87,-685.42 -1530.87,-1530.87 0,-845.45 685.42,-1530.87 1530.87,-1530.87z"/>
  <path class="fil1" d="M4978.97 2319.31c311.83,-86.73 305.4,281.56 465.71,200.18 86.02,-43.69 172.69,-324.77 464.34,-174.11 176.24,91.04 216.01,342.22 142.37,521.18 -79.97,194.46 -156.66,277.37 -284.68,432.66 -367.91,446.24 -443.78,315.87 -787.42,-68.35 -210.82,-235.8 -459.93,-783.71 -0.32,-911.56zm1257.66 447.65c26.94,-240.49 -49.15,-454.74 -269.73,-573.6 -349.69,-188.4 -484.2,152.24 -606.55,78.49 -562.04,-338.78 -950.73,165.22 -760.69,642.5 95.34,239.4 558.22,926.07 869.67,832.09 303.82,-91.69 732.88,-672.33 767.3,-979.48zm-3363.89 1456.54c171.71,-133.2 1050.33,-312.17 1221.44,-200.95 370.37,240.87 865.26,231.93 1301.73,233.13 414.39,1.09 963.28,10.47 1308.01,-226.97 173.02,-119.18 1058.35,44.24 1220.57,196.59 -271.8,424.58 -4735.49,433.2 -5051.75,-1.8zm506.24 -974.03c-410.02,-23.45 -789.77,-53.78 -888.5,-490.52 -102.21,-452.3 198.6,-684.77 548.3,-760.32 23.56,38.51 89.23,553.21 125.12,681.88 38.51,138.22 207.82,514.85 215.08,568.96zm4187.14 -1586.24c64.8,611.84 -96.27,1326.55 -494.13,1807.65 -543.05,656.62 -881.56,615.49 -1699.26,614.07 -741.38,-1.25 -1205.68,9.49 -1665.44,-646.15 -415.26,-592.2 -489.71,-1069.8 -461.73,-1780.26 112.2,14.95 332.02,93.66 475.75,120.27 726.76,134.68 2686.26,143.08 3389.08,-4.8 92.02,-19.36 399,-108.27 455.73,-110.78zm-3110.41 -304.53c122.73,-112.74 -88.91,-220.09 230.02,-201.6 126.54,7.31 132.98,-104.67 273.44,-167.13 251.23,-111.7 498.11,-7.96 664.96,181.15 226.04,-55.69 225.39,-48.44 332.57,131.46 38.34,64.31 266.78,142.52 340.96,144.05 57.55,-94.53 59.46,-189.38 184.48,-184.53 115.8,4.53 133.41,96.22 160.58,188.19 173.13,4.3 280.74,19.36 380.18,171.54 -963.44,153.11 -2289.88,146.18 -3253.59,-3.76 79.8,-69.88 82.31,-39.17 167.45,-75.33 89.51,-38.02 53.95,-42.65 136.58,-98.45 180.71,-122.02 257.35,-25.64 382.37,-85.59zm2530.54 -12.81c124.52,7.85 458.78,38.72 511.09,147.92 -68.24,44.57 -198.06,84.22 -297.06,89.62l-214.03 -237.54zm-3677.53 147.92c54.49,-106.31 599.95,-175.14 631.04,-162.05 -41.83,72.76 -123.71,58.74 -216.27,108.54 -132.66,71.35 -104.57,106.53 -180.22,145.48l-234.55 -91.97zm3682.93 2314.81c286.2,-361.91 483.11,-552.93 622.09,-1024.91 83.51,-283.31 237.55,-1194.88 30.22,-1407.93 -160.69,-165.17 -1124.52,-279.28 -1368.83,-275.9 -180.87,2.46 -193.41,19.97 -344.67,-73.31 -139.04,-85.74 -167.62,-21.87 -281.67,-65.67 -155.73,-59.89 -418.42,-363.38 -893.02,-35.29 -130.64,90.27 -167.35,21.38 -276.82,88.42 -269.35,164.89 -338.13,125.24 -653.79,158.4 -1155.88,121.42 -465.93,573.87 -932.13,684.49 -445.64,105.77 -681.27,601.75 -532.31,1027.37 190.96,545.84 662.57,497.84 1112.62,515.29l350.89 404.08c-162.76,125.94 -1004.18,41.07 -1124.84,421.64 -1.41,674.67 5411.7,646.09 5407.22,0 -62.94,-348.71 -966.93,-309.61 -1114.96,-416.68z"/>
 </g>
</svg>
