<?xml version="1.0" encoding="UTF-8"?>
<!DOCTYPE svg PUBLIC "-//W3C//DTD SVG 1.1//EN" "http://www.w3.org/Graphics/SVG/1.1/DTD/svg11.dtd">
<!-- Creator: CorelDRAW 2019 (64-Bit) -->
<svg xmlns="http://www.w3.org/2000/svg" xml:space="preserve" width="88.9mm" height="50.8mm" version="1.1" style="shape-rendering:geometricPrecision; text-rendering:geometricPrecision; image-rendering:optimizeQuality; fill-rule:evenodd; clip-rule:evenodd"
viewBox="0 0 8890 5080"
 xmlns:xlink="http://www.w3.org/1999/xlink">
 <defs>
  <style type="text/css">
   <![CDATA[
    .fil0 {fill:#E62C54}
    .fil1 {fill:#0C54A0}
   ]]>
  </style>
 </defs>
 <g id="Слой_x0020_1">
  <metadata id="CorelCorpID_0Corel-Layer"/>
  <path class="fil0" d="M1850.91 451.4c845.5,0 1530.92,685.42 1530.92,1530.87 0,845.45 -685.42,1530.87 -1530.92,1530.87 -845.45,0 -1530.87,-685.42 -1530.87,-1530.87 0,-845.45 685.42,-1530.87 1530.87,-1530.87z"/>
  <g id="_2621683365360">
   <path class="fil1" d="M2905.6 2415.96c61.04,-102.61 -95.72,-306.48 -109.5,-434.89 -36.48,-340.47 109.87,-307.5 133.87,-492.18 -325.3,9.11 -247.34,757.64 -24.37,927.07zm3592.12 2225.07c-106.08,45.92 -303.66,20.81 -426.85,20.81 47.03,-98.63 169.34,-285.58 271.8,-314.57 91.28,45.59 186.49,193.46 155.05,293.76zm-3124.17 -1498.64c613.7,142 883.42,262.13 1568.56,167.99 444.73,-61.13 883.83,-228.66 1233.68,-506.56 298.07,376.95 -399.37,472.57 -444.73,640.93 106.16,101.55 442.33,-200.68 523.02,-283.63 -10.82,718.2 -2601.56,1182.22 -2825.6,430.12 423.7,111.86 749.09,210.25 1221.76,181.08 226.71,-14.01 1057.74,-137.43 1092.98,-310.23 -64.23,-31.86 -455.51,121.98 -575.78,152.18 -428.51,107.46 -1003.32,95.02 -1425.73,-22.29 -348.32,-96.69 -412.41,-44.44 -368.16,-449.59zm-664.05 -6.75c177.7,243.82 644.54,302.27 685.69,631.5 -190.42,-106.54 -230.83,-101.91 -403.86,-257.1 -140.75,-126.28 -205.07,-190.46 -281.83,-374.4zm2178.51 -528.16c-87.68,-85.49 -877.92,89.02 -1253.94,-312.95 -675.85,-722.5 1070.13,-1373.79 1733.45,-640.7 508.78,562.28 -444.23,841.89 -500.04,921.28 133.12,189.91 454.49,-444.55 1267.07,133.13 -235.23,305.6 -831.54,463.09 -1179.73,511.05 -624.42,85.96 -975.71,11.97 -1553.66,-165.78 30.79,-197.35 203.45,-432.39 338.75,-553.4 277.95,68.53 874.68,347.13 1148.1,107.37zm1607.02 -167.43c-37.36,198.74 -12.34,322.48 -160.36,467.07l-67.78 -196.71 228.14 -270.36zm-3995.74 -11.84c109.54,141.54 195.78,273.09 327.93,386.34 119.63,102.51 393.6,227.22 457.23,296.44l-13.55 294.78c-387.36,-88.59 -784.56,-575.13 -771.61,-977.56zm799.12 572.68c-462.82,-187.64 -950.23,-688.05 -808.37,-1231.28 174.79,-669.46 950.97,-783.35 1191.47,-287.75 -460.55,504.53 -303.61,500.78 -34.73,956.34l-348.37 562.69zm1817.56 -1643.37c531.76,-918.28 1989.99,178.81 1096.81,1298.28 -356.88,-136.17 -239.38,-233.09 -798.93,-292.19 118,-191.89 238.55,-347.4 124.94,-595.2 -131.23,-286.04 -280.72,-249.47 -422.82,-410.89zm-2121.63 -241.19c417.27,-459.9 2161.03,-603.11 2638.13,-204.7 -351.7,131.69 -361.18,82.49 -594.88,409.31 -260.05,21.55 -620.45,-224.63 -1271.09,109.78 -254.14,-249.19 -361.51,-379.49 -772.16,-314.39zm3580.78 3567.84c70.15,-158.51 -114.58,-508.64 -308.93,-395.63 -253.3,147.23 -117.03,368.72 -515.44,379.49 -575.36,15.54 -1194.66,-6.19 -1775.85,-6.19 -315.31,0 -1528.97,144.78 -1502.52,-260.84 18.26,-279.52 463.88,-205.68 667.61,-213.31 409.46,-15.4 333.9,-265.79 587.2,-234.16 936.51,116.99 2059.49,207.71 2624.36,-742.38 528.06,-888.14 308.15,-1956 -657.63,-2378.41 -847.3,-370.57 -2054.12,-336.12 -2809.27,239.11 -747.37,569.26 -632.93,1904.21 40.83,2503.62 332.42,295.71 1097.1,492.6 -97.01,535.65 -270.83,9.75 -533.98,89.98 -421.8,424.76 91.69,273.56 442.93,211.83 683.61,211.59 509.71,-0.46 3238.06,90.08 3484.84,-63.3z"/>
  </g>
 </g>
</svg>
