<?xml version="1.0" encoding="UTF-8"?>
<!DOCTYPE svg PUBLIC "-//W3C//DTD SVG 1.1//EN" "http://www.w3.org/Graphics/SVG/1.1/DTD/svg11.dtd">
<!-- Creator: CorelDRAW 2019 (64-Bit) -->
<svg xmlns="http://www.w3.org/2000/svg" xml:space="preserve" width="88.9mm" height="50.8mm" version="1.1" style="shape-rendering:geometricPrecision; text-rendering:geometricPrecision; image-rendering:optimizeQuality; fill-rule:evenodd; clip-rule:evenodd"
viewBox="0 0 8890 5080"
 xmlns:xlink="http://www.w3.org/1999/xlink">
 <defs>
  <style type="text/css">
   <![CDATA[
    .fil0 {fill:#E62C54}
    .fil1 {fill:#0C54A0}
   ]]>
  </style>
 </defs>
 <g id="Слой_x0020_1">
  <metadata id="CorelCorpID_0Corel-Layer"/>
  <path class="fil0" d="M1850.91 451.4c845.5,0 1530.92,685.42 1530.92,1530.87 0,845.45 -685.42,1530.87 -1530.92,1530.87 -845.45,0 -1530.87,-685.42 -1530.87,-1530.87 0,-845.45 685.42,-1530.87 1530.87,-1530.87z"/>
  <g id="_2621683292112">
   <path class="fil1" d="M5355.05 3858.59c133.16,56.81 -2.56,26.39 82.06,159.6 46.17,72.64 102.88,56.98 175.16,48.95 111.81,-112.98 37.6,-103.51 108.62,-209.98 48.77,75.06 33.43,193.24 25.58,292.4l-433.24 1.16c-3.59,-115.98 -32.66,-239.45 41.82,-292.13zm216.97 132.72c-183.19,-64.83 -6.05,-554.47 136.13,-535.8 33.47,114.63 -37.78,96.1 -73.94,237.43 -24.1,94.23 -13.37,230.94 -62.19,298.37zm-1200.95 -283.74l-278.9 144.83c-7.35,-10.68 -14.31,-25.57 -16.19,-21.35l-43.57 -68.25c-13.1,-24.76 -30.37,-62.18 -43.12,-88.88 -33.42,-70.08 -63.93,-141.87 -84.66,-214.64 181.98,-89.38 241.34,-137.65 307.02,-88.03 -23.87,103.55 -231.06,92.78 -163.22,265.84 23.15,59.04 79.91,88.43 139.76,83.72 128.09,-10.14 91.44,-81.26 182.88,-13.24zm-252.11 -104.76c23.87,-106.47 149.85,-109.3 387.92,-218.64 112.66,-51.73 311.69,-180.01 421.84,-176.37 2.11,145.59 -240.26,202.48 -362.53,263.5 -119.07,59.45 -329.14,198.27 -447.23,131.51zm-1130.7 -801.15c-29.97,-30.02 35.49,35.49 0,0zm2018.39 -127.74c-131.68,88.44 -826.72,2.74 -940.5,-102.61 57.61,-165.96 317.03,39.13 738.92,39.98 130.92,0.27 176.82,-61.69 201.58,62.63zm-803.25 81.71c-22.93,10.59 -8.66,14.44 -53.98,15.52 -6.14,0.14 -80.53,-9.64 -88.12,-10.68 -59.31,-8.07 -97.45,-10.05 -155.19,-23.55 -42.85,-102.25 7.85,-299.22 29.84,-425.66 361.58,22.3 309.44,19.61 307.29,123.16 -357.32,-65.64 -291.5,193.16 -181.8,243.18 125.09,57.03 83.36,-29.83 141.96,78.03zm1041.23 -895.82c-78.03,198.31 -81.48,158.47 -310.75,104.45 -144.52,-34.05 -267.54,-73.98 -407.57,-120.15 -222.36,-73.31 -614.77,-148.42 -595.93,-432.74 26.47,-400.4 470.66,-169.47 657.22,-103.2 194.94,69.23 648.1,178.44 791.23,247.62l-104.1 197.1c-145.95,0.05 -464.91,-98.3 -611.18,-152.32 -124.28,-45.9 -403.93,-229.81 -511.66,-156.27 110.11,192.61 960.11,326.9 1092.74,415.51zm-2540.37 2597.18c-51.33,-743.45 191.35,-1004.76 330.22,-1622.62 118.85,-528.98 161.7,-1257 131.5,-1821.69l725.64 241.47c-261.17,685.53 864.85,646.85 1189.24,841.62l-145.81 421.88c-1002.78,15.21 -330.14,-200.82 -736.09,-266.06 -99.29,-15.97 -219.4,-29.79 -337.99,-29.93l-63.35 595.21c89.02,10.9 360.06,29.61 424.22,62.86l101.76 -133.3 527.54 60.93c-11.35,418.88 -169.77,417.94 -536.83,566.4l-97.05 -156.76 -427.36 228.32 253.37 516.96c851.71,-326.54 55.68,-202.75 628.63,-440.05 320.98,-132.95 434.76,-223.04 824.12,-29.57 -137.03,413.09 -17.23,154.3 -223.66,288.13 -88.89,57.66 -52.27,327.49 -38.23,450.33l593.72 -0.62c2.2,-91.94 10.41,-230.53 4.85,-318.02 -19.34,-304.33 -65.37,-7 -97.81,-212.54 -36.75,-232.72 279.16,-42.89 361.09,0.9 309.04,165.2 453.52,413.14 477.38,768.75l-798.54 -0.04c7.31,177.04 526.92,61.2 914.89,95.74l-6.2 149.05c-297.6,26.56 -835.15,19.07 -1142.09,5.66 -187.72,-8.17 -265.39,-88.75 -423.68,-143.85 -159.95,-55.72 -356.96,-27.23 -527.32,-27.5 -191.67,-0.32 -352.2,-40.61 -501.12,78.74 -174.89,140.21 -271.94,92.25 -500.94,92.11 -193.38,-0.13 -386.84,-0.4 -580.22,0 -224.69,0.5 -437.59,81.53 -418.03,-156.54l1182.79 -7.85c-1.21,-179.2 -822.46,-46.62 -1068.64,-98.12zm2385.53 -3089.19c-327.53,-30.55 -744.84,-344.89 -1031.36,-251.08 -213.52,69.95 -981.19,-127.55 -844.12,-339.59 179.06,-277.01 1786.42,378.94 1875.48,590.67zm121.05 -76.05c7.36,-218.86 323.4,-874.5 586.01,-539.48 -20.55,131.24 -162.55,218.55 -264.49,308.01 -77.62,68.11 -246.59,229.05 -321.52,231.47zm127.78 63.31c80.18,-163.27 804.47,-509.02 454.82,-726.26 -354.94,-220.53 -609.65,339.37 -668.88,599.51 -415.33,-135.95 -793.92,-406.23 -1280.82,-547.24 -911.02,-263.82 -754.57,225.63 -771.04,913.76 -40.82,1707.05 -318.1,1453.96 -432.29,2321.78 -20.68,157.44 -13.95,277.9 -25.39,423.68 -22.17,282.25 -145.01,-13.15 -113.97,341.75 19.3,220.56 605.53,122.93 797.2,122.93 232.1,0 632.04,63.8 810.7,-78.51 199.26,-158.79 570.08,-103.02 824.52,-92.79 273.42,10.95 331.35,175.88 710.65,172.16 308.87,-3.05 618.94,-4.98 927.5,2.64 192.34,4.76 254.71,-5.47 210.51,-231.78 -45.54,-233.31 -88.48,57.7 -148.19,-304.51 -54.83,-332.47 -339.38,-603.87 -644.79,-726 -228.06,-91.17 -134.15,-100.09 -270.91,-182.69l-660.66 -72.42c-49.36,-76.54 -100.1,-210.34 -187.82,-240.62l221.92 -354.18c11.84,-215.54 -102.39,-77.8 3.72,-383.84 73.45,-211.73 109.21,-167.58 185.12,-317.16 48.95,-96.47 111.09,-247.09 155.33,-349.02 110.69,-254.76 1.12,-152.06 -97.23,-291.19zm-2145.85 1847.85c202.17,-141.92 357.54,-1795.4 237.35,-1922.38 -103.51,66.18 -49.81,375 -53.85,499.69 -10.94,338.83 -46.34,666.63 -109.83,996 -69.77,361.76 -153.67,324.12 -73.67,426.69zm628.99 1154.25c224.69,-347.72 -580.04,-1127.92 -890.48,-889.72 52.27,60.84 -58.59,27.96 171.62,64.48 271.13,42.93 514.63,235.19 610.86,495.01 45.86,123.84 13.64,289.71 108,330.23zm-948.89 -76.73c85.2,-33.47 56.22,-17.18 70.26,-144.69 23.06,-209.22 106.83,-375.63 65.06,-451.95 -133.03,39.35 -192.12,470.75 -135.32,596.64z"/>
  </g>
 </g>
</svg>
