<svg id="sachet_stick" xmlns="http://www.w3.org/2000/svg" viewBox="0 0 27.98 27.98"><defs><style>.cls-1,.cls-2{fill:none;stroke-linejoin:round;}.cls-1{stroke:#a2d45e;stroke-width:11.34px;opacity:0.25;}.cls-2{stroke:#fff;stroke-width:5.67px;}.cls-3{fill:#a2d45e;}</style></defs><title>Artboard 1</title><g id="Layer_12_copy_4" data-name="Layer 12 copy 4"><g id="art_copy_7" data-name="art copy 7"><path class="cls-1" d="M14.87,14a.89.89,0,1,1-.89-.89A.88.88,0,0,1,14.87,14ZM14,8.63a.89.89,0,1,0,.89.89A.88.88,0,0,0,14,8.63Zm0-3a.89.89,0,0,0,0,1.77.89.89,0,1,0,0-1.77Zm-.36,1.68A1.17,1.17,0,0,1,13.9,8a1.17,1.17,0,0,1-.28.69l.36,0V7.35Zm.72,1.38A1.15,1.15,0,0,1,14.05,8a1.15,1.15,0,0,1,.29-.69l-.37,0V8.73Zm.14-1.59a3.6,3.6,0,0,1,1.34,0,2.37,2.37,0,0,1,1,.53L17,7.31,14.67,6.8ZM17.23,7a3.73,3.73,0,0,1-1.34,0,2.3,2.3,0,0,1-1-.52l-.16.35L17,7.33ZM13.31,6.8,11,7.31l.16.35a2.37,2.37,0,0,1,1-.53,3.56,3.56,0,0,1,1.33,0Zm-2.37.53,2.35-.51-.17-.35a2.23,2.23,0,0,1-1,.52,3.68,3.68,0,0,1-1.33,0Zm3.58,2.75s.3-.27.55-.18.38.5.38.5l.1-.44-.91-.32Zm1.15-.55s-.29.27-.55.18-.37-.5-.37-.5l-.11.44.92.32Zm-2.36.11-.92.32.11.44s.12-.41.37-.5.55.18.55.18Zm-.92.33.91-.32-.1-.44s-.12.41-.38.5-.55-.18-.55-.18Zm4.24-.64a.88.88,0,1,0,.33,1.2A.87.87,0,0,0,16.63,9.33ZM18.1,6.75A.89.89,0,1,0,18.43,8,.9.9,0,0,0,18.1,6.75ZM17,8a1.13,1.13,0,0,1-.1.73,1.13,1.13,0,0,1-.58.46l.32.17.67-1.18Zm-.06,1.55a1.16,1.16,0,0,1,.1-.74,1.13,1.13,0,0,1,.58-.46l-.32-.17-.67,1.19Zm.91-1.31A3.69,3.69,0,0,1,19,8.93a2.35,2.35,0,0,1,.64,1l.31-.22-1.79-1.6ZM20.27,9.5a3.69,3.69,0,0,1-1.17-.65,2.35,2.35,0,0,1-.64-1l-.32.22,1.79,1.6ZM17,7.4l-2.3-.71,0,.38a2.31,2.31,0,0,1,1.17.06,3.52,3.52,0,0,1,1.15.66Zm-2.32-.71,2.29.72L17,7A2.27,2.27,0,0,1,15.79,7a3.45,3.45,0,0,1-1.15-.67Zm1.76,4.16s.39-.08.57.12.07.62.07.62l.31-.33-.64-.73Zm1.26.1s-.39.09-.56-.12-.08-.62-.08-.62l-.31.33.64.73Zm-2.1-1.08-1-.17-.13.43s.31-.3.58-.25.39.43.39.43Zm-1-.16.95.17.13-.44s-.31.3-.57.26-.39-.43-.39-.43Zm-3.24,8.94A.89.89,0,1,0,11,17.44.89.89,0,0,0,11.34,18.65ZM9.88,21.22a.88.88,0,0,0,1.21-.33.9.9,0,0,0-.33-1.21.89.89,0,0,0-.88,1.54ZM11,19.94a1.2,1.2,0,0,1,.09-.74,1.17,1.17,0,0,1,.59-.46l-.32-.16-.68,1.18Zm.06-1.55a1,1,0,0,1-.68,1.2l.32.16.67-1.18Zm-.92,1.31A3.6,3.6,0,0,1,9,19a2.26,2.26,0,0,1-.65-1l-.31.22L9.84,19.9ZM7.71,18.48a3.37,3.37,0,0,1,1.16.65,2.26,2.26,0,0,1,.65,1l.31-.22L8,18.27ZM11,20.57l2.29.72,0-.38a2.27,2.27,0,0,1-1.16-.06A3.56,3.56,0,0,1,11,20.18Zm2.32.72-2.3-.72L11,21a2.31,2.31,0,0,1,1.17.06,3.59,3.59,0,0,1,1.15.67Zm-1.76-4.17s-.39.09-.57-.11-.07-.62-.07-.62l-.31.33.63.73ZM10.32,17s.39-.09.57.11a.85.85,0,0,1,.08.63l.3-.34-.63-.73Zm2.11,1.08,1,.17.13-.43s-.31.3-.57.25-.39-.43-.39-.43Zm1,.16-1-.17-.12.43s.3-.3.57-.25.39.43.39.43ZM9.33,11.34a.88.88,0,0,0,.33,1.21.9.9,0,0,0,1.21-.33.89.89,0,0,0-1.54-.88ZM6.75,9.88A.89.89,0,1,0,8,9.55.9.9,0,0,0,6.75,9.88ZM8,11a1.17,1.17,0,0,1,.73.09,1.17,1.17,0,0,1,.46.59l.17-.32-1.18-.68Zm1.55.06a1.16,1.16,0,0,1-.74-.1,1.17,1.17,0,0,1-.46-.58l-.17.32,1.19.67Zm-1.31-.92A3.69,3.69,0,0,1,8.93,9a2.32,2.32,0,0,1,1-.65l-.22-.31L8.08,9.84ZM9.5,7.71a3.58,3.58,0,0,1-.65,1.16,2.32,2.32,0,0,1-1,.65l.22.31L9.7,8ZM7.4,11l-.71,2.29.38,0a2.27,2.27,0,0,1,.06-1.16A3.63,3.63,0,0,1,7.79,11Zm-.71,2.32.72-2.3L7,11A2.31,2.31,0,0,1,7,12.19a3.59,3.59,0,0,1-.67,1.15Zm4.16-1.76s-.08-.39.12-.57.62-.07.62-.07l-.33-.31-.73.63Zm.1-1.27s.09.39-.12.57-.62.08-.62.08l.33.3.73-.63ZM9.87,12.43l-.17,1,.43.13s-.3-.31-.25-.57.43-.39.43-.39Zm-.16,1,.17-1-.44-.12s.3.3.26.57-.43.39-.43.39Zm8.94,3.23a.88.88,0,1,0-1.21.33A.88.88,0,0,0,18.65,16.63Zm2.57,1.47a.88.88,0,0,0-.33-1.21.9.9,0,0,0-1.21.33.89.89,0,0,0,1.54.88ZM19.94,17a1.16,1.16,0,0,1-.74-.1,1.13,1.13,0,0,1-.46-.58l-.16.32,1.18.67Zm-1.55-.06a1.16,1.16,0,0,1,.74.1,1.13,1.13,0,0,1,.46.58l.16-.32-1.18-.67Zm1.31.91A3.6,3.6,0,0,1,19,19a2.29,2.29,0,0,1-1,.64l.22.31,1.61-1.79Zm-1.22,2.47a3.47,3.47,0,0,1,.65-1.17,2.29,2.29,0,0,1,1-.64l-.22-.32-1.61,1.79ZM20.57,17l.72-2.3-.38,0a2.31,2.31,0,0,1-.06,1.17,3.45,3.45,0,0,1-.67,1.15Zm.72-2.32-.72,2.29L21,17A2.27,2.27,0,0,1,21,15.79a3.45,3.45,0,0,1,.67-1.15Zm-4.17,1.76s.09.39-.11.57-.62.07-.62.07l.33.31.73-.64ZM17,17.65s-.09-.39.11-.56a.85.85,0,0,1,.63-.08l-.34-.31-.73.64Zm1.08-2.1.17-1-.43-.13s.3.31.25.58-.43.39-.43.39Zm.16-1-.17.95.43.13s-.3-.31-.25-.57.43-.39.43-.39Zm.35-3.29A.89.89,0,0,0,17.41,11a.89.89,0,1,0,1.21.32Zm2.56-1.48A.88.88,0,1,0,20.86,11,.89.89,0,0,0,21.18,9.81Zm-1.64.53a1.13,1.13,0,0,1-.45.59,1.16,1.16,0,0,1-.74.1l.2.3,1.17-.68Zm-.83,1.31a1.17,1.17,0,0,1,.46-.59,1.13,1.13,0,0,1,.73-.1l-.19-.31-1.18.68ZM20.16,11a3.45,3.45,0,0,1,.67,1.15,2.29,2.29,0,0,1,.08,1.16l.38,0L20.55,11Zm1.51,2.29A3.58,3.58,0,0,1,21,12.12,2.35,2.35,0,0,1,20.92,11l-.38,0,.74,2.29ZM19.86,9.79,18.24,8,18,8.33A2.23,2.23,0,0,1,19,9a3.5,3.5,0,0,1,.66,1.15ZM18.22,8l1.62,1.78.22-.31a2.35,2.35,0,0,1-1-.64,3.6,3.6,0,0,1-.66-1.16Zm-.58,4.49s.38.12.43.38-.25.58-.25.58l.44-.13-.18-1Zm1.05.72s-.39-.12-.44-.39.25-.57.25-.57l-.43.13.18.95Zm-1.28-2-.74-.63-.33.32s.42-.11.63.07.12.56.12.56Zm-.75-.62.73.62.33-.31s-.42.11-.62-.07-.12-.56-.12-.56Zm-7.3,6.09a.88.88,0,0,0,1.21.33.89.89,0,0,0-.89-1.54A.89.89,0,0,0,9.36,16.68ZM6.8,18.17a.89.89,0,0,0,1.53-.89A.89.89,0,0,0,7.12,17,.89.89,0,0,0,6.8,18.17Zm1.64-.53a1.13,1.13,0,0,1,.45-.59,1.13,1.13,0,0,1,.73-.1l-.19-.31-1.18.69Zm.82-1.31a1.13,1.13,0,0,1-.45.59,1.16,1.16,0,0,1-.74.1l.2.31,1.18-.69ZM7.82,17a3.58,3.58,0,0,1-.68-1.15,2.34,2.34,0,0,1-.07-1.16l-.38,0L7.43,17ZM6.31,14.71A3.48,3.48,0,0,1,7,15.85,2.25,2.25,0,0,1,7.05,17l.38,0L6.69,14.7Zm1.81,3.48L9.74,20l.21-.31A2.35,2.35,0,0,1,9,19a3.5,3.5,0,0,1-.66-1.15ZM9.76,20,8.14,18.2l-.22.31a2.35,2.35,0,0,1,1,.64,3.5,3.5,0,0,1,.66,1.16Zm.58-4.48s-.39-.12-.44-.39.25-.57.25-.57l-.43.13.18.95Zm-1.05-.72s.38.12.43.39-.25.57-.25.57l.44-.13-.18-.95Zm1.28,2,.73.63.34-.31s-.42.11-.63-.07-.12-.56-.12-.56Zm.75.63-.73-.63-.34.31a.88.88,0,0,1,.63.07c.2.18.12.57.12.57Zm0-8a.89.89,0,1,0,1.21.32A.89.89,0,0,0,11.29,9.36ZM9.81,6.8A.88.88,0,0,0,9.48,8,.89.89,0,0,0,11,7.12.89.89,0,0,0,9.81,6.8Zm.53,1.64a1.13,1.13,0,0,1,.59.45,1.13,1.13,0,0,1,.1.73l.3-.19-.68-1.18Zm1.31.82a1.13,1.13,0,0,1-.59-.45,1.16,1.16,0,0,1-.1-.74l-.31.2.68,1.18ZM11,7.82a3.58,3.58,0,0,1,1.15-.68,2.35,2.35,0,0,1,1.16-.07l0-.38L11,7.43Zm2.29-1.51A3.45,3.45,0,0,1,12.12,7,2.22,2.22,0,0,1,11,7.05l0,.38,2.29-.74ZM9.79,8.12,8,9.74l.32.21A2.23,2.23,0,0,1,9,9a3.5,3.5,0,0,1,1.15-.66ZM8,9.76,9.78,8.14l-.31-.22a2.35,2.35,0,0,1-.64,1,3.6,3.6,0,0,1-1.16.66Zm4.49.58s.12-.39.38-.44.58.25.58.25l-.13-.43-1,.18Zm.72-1.05s-.12.38-.39.43-.57-.25-.57-.25l.13.44.95-.18Zm-2,1.28-.63.73.32.34s-.11-.42.07-.63.56-.12.56-.12Zm-.62.75.62-.73-.31-.34s.11.42-.07.63-.56.12-.56.12Zm6.09,7.3a.88.88,0,1,0-1.21-.32A.89.89,0,0,0,16.68,18.62Zm1.49,2.56A.89.89,0,1,0,17,20.86.89.89,0,0,0,18.17,21.18Zm-.53-1.64a1.13,1.13,0,0,1-.59-.45,1.16,1.16,0,0,1-.1-.74l-.31.2.69,1.17Zm-1.31-.83a1.17,1.17,0,0,1,.59.46,1.13,1.13,0,0,1,.1.73l.31-.19-.69-1.18ZM17,20.16a3.45,3.45,0,0,1-1.15.67,2.28,2.28,0,0,1-1.16.08l0,.38L17,20.55Zm-2.29,1.51A3.61,3.61,0,0,1,15.85,21,2.39,2.39,0,0,1,17,20.92l0-.38-2.28.74Zm3.48-1.81L20,18.24,19.65,18A2.35,2.35,0,0,1,19,19a3.5,3.5,0,0,1-1.15.66ZM20,18.22,18.2,19.84l.31.22a2.35,2.35,0,0,1,.64-1,3.5,3.5,0,0,1,1.16-.66Zm-4.48-.58s-.12.38-.39.43-.57-.25-.57-.25l.13.44.95-.18Zm-.72,1.05s.12-.39.39-.44.57.25.57.25l-.13-.43-.95.18Zm2-1.28.63-.74-.31-.33s.11.42-.07.63-.56.12-.56.12Zm.63-.75-.63.73.31.33s-.1-.42.07-.62.57-.12.57-.12ZM14,19.35a.89.89,0,1,0,0-1.77.89.89,0,0,0,0,1.77Zm0,3a.89.89,0,1,0,0-1.77.89.89,0,0,0,0,1.77Zm.37-1.68a1,1,0,0,1,0-1.38H14v1.37Zm-.72-1.38a1,1,0,0,1,0,1.38l.36,0V19.25Zm-.15,1.59a3.68,3.68,0,0,1-1.33,0,2.3,2.3,0,0,1-1-.52l-.16.35,2.35.51ZM10.75,21a3.56,3.56,0,0,1,1.33,0,2.29,2.29,0,0,1,1,.53l.17-.35-2.35-.51Zm3.92.19L17,20.67l-.16-.35a2.3,2.3,0,0,1-1,.52,3.73,3.73,0,0,1-1.34,0ZM17,20.65l-2.35.51.16.35a2.37,2.37,0,0,1,1-.53,3.6,3.6,0,0,1,1.34,0ZM13.45,17.9s-.29.27-.55.18-.37-.5-.37-.5l-.1.44.91.32Zm-1.14.54s.29-.27.55-.18.37.51.37.51l.1-.45L12.42,18Zm2.36-.1.92-.32-.11-.44s-.12.41-.37.5-.55-.18-.55-.18Zm.92-.34-.91.32.1.45s.12-.42.38-.51.55.18.55.18Zm-7-4a.89.89,0,1,0,.89-.88A.89.89,0,0,0,8.63,14Zm-3,0a.89.89,0,1,0,.88-.88A.89.89,0,0,0,5.67,14Zm1.68.37A1.15,1.15,0,0,1,8,14.07a1.15,1.15,0,0,1,.69.29l0-.37H7.35Zm1.38-.72a1.17,1.17,0,0,1-.69.28,1.17,1.17,0,0,1-.69-.28l0,.36H8.73Zm-1.59-.15a3.56,3.56,0,0,1,0-1.33,2.37,2.37,0,0,1,.53-1L7.31,11,6.8,13.31ZM7,10.75a3.68,3.68,0,0,1,0,1.33,2.23,2.23,0,0,1-.52,1l.35.17.51-2.35ZM6.8,14.67,7.31,17l.35-.16a2.37,2.37,0,0,1-.53-1,3.6,3.6,0,0,1,0-1.34ZM7.33,17l-.51-2.35-.35.16a2.3,2.3,0,0,1,.52,1,3.73,3.73,0,0,1,0,1.34Zm2.75-3.59s-.27-.29-.18-.55.5-.37.5-.37l-.44-.1-.32.91Zm-.55-1.14s.27.29.18.55-.5.37-.5.37l.44.1.32-.91Zm.11,2.36.32.92.44-.11s-.41-.12-.5-.37.18-.55.18-.55Zm.33.92-.32-.91-.44.1s.41.12.5.38-.18.55-.18.55ZM19.35,14a.89.89,0,1,0-.89.89A.88.88,0,0,0,19.35,14Zm3,0a.89.89,0,1,0-.89.89A.88.88,0,0,0,22.31,14Zm-1.68-.36a1,1,0,0,1-1.38,0V14h1.37Zm-1.38.72a1,1,0,0,1,1.38,0l0-.37H19.25Zm1.59.14a3.73,3.73,0,0,1,0,1.34,2.3,2.3,0,0,1-.52,1l.35.16.51-2.35ZM21,17.23a3.6,3.6,0,0,1,0-1.34,2.37,2.37,0,0,1,.53-1l-.35-.16L20.65,17Zm.19-3.92L20.67,11l-.35.16a2.3,2.3,0,0,1,.52,1,3.68,3.68,0,0,1,0,1.33Zm-.53-2.37.51,2.35.35-.17a2.29,2.29,0,0,1-.53-1,3.56,3.56,0,0,1,0-1.33ZM17.9,14.52s.27.3.18.55-.5.38-.5.38l.44.1.32-.91Zm.54,1.15s-.27-.29-.18-.55.51-.37.51-.37l-.45-.11-.32.92Zm-.1-2.36L18,12.39l-.44.11s.41.12.5.37-.18.55-.18.55ZM18,12.39l.32.91.45-.1s-.42-.12-.51-.38.18-.55.18-.55Z"/><path class="cls-2" d="M14.87,14a.89.89,0,1,1-.89-.89A.88.88,0,0,1,14.87,14ZM14,8.63a.89.89,0,1,0,.89.89A.88.88,0,0,0,14,8.63Zm0-3a.89.89,0,0,0,0,1.77.89.89,0,1,0,0-1.77Zm-.36,1.68A1.17,1.17,0,0,1,13.9,8a1.17,1.17,0,0,1-.28.69l.36,0V7.35Zm.72,1.38A1.15,1.15,0,0,1,14.05,8a1.15,1.15,0,0,1,.29-.69l-.37,0V8.73Zm.14-1.59a3.6,3.6,0,0,1,1.34,0,2.37,2.37,0,0,1,1,.53L17,7.31,14.67,6.8ZM17.23,7a3.73,3.73,0,0,1-1.34,0,2.3,2.3,0,0,1-1-.52l-.16.35L17,7.33ZM13.31,6.8,11,7.31l.16.35a2.37,2.37,0,0,1,1-.53,3.56,3.56,0,0,1,1.33,0Zm-2.37.53,2.35-.51-.17-.35a2.23,2.23,0,0,1-1,.52,3.68,3.68,0,0,1-1.33,0Zm3.58,2.75s.3-.27.55-.18.38.5.38.5l.1-.44-.91-.32Zm1.15-.55s-.29.27-.55.18-.37-.5-.37-.5l-.11.44.92.32Zm-2.36.11-.92.32.11.44s.12-.41.37-.5.55.18.55.18Zm-.92.33.91-.32-.1-.44s-.12.41-.38.5-.55-.18-.55-.18Zm4.24-.64a.88.88,0,1,0,.33,1.2A.87.87,0,0,0,16.63,9.33ZM18.1,6.75A.89.89,0,1,0,18.43,8,.9.9,0,0,0,18.1,6.75ZM17,8a1.13,1.13,0,0,1-.1.73,1.13,1.13,0,0,1-.58.46l.32.17.67-1.18Zm-.06,1.55a1.16,1.16,0,0,1,.1-.74,1.13,1.13,0,0,1,.58-.46l-.32-.17-.67,1.19Zm.91-1.31A3.69,3.69,0,0,1,19,8.93a2.35,2.35,0,0,1,.64,1l.31-.22-1.79-1.6ZM20.27,9.5a3.69,3.69,0,0,1-1.17-.65,2.35,2.35,0,0,1-.64-1l-.32.22,1.79,1.6ZM17,7.4l-2.3-.71,0,.38a2.31,2.31,0,0,1,1.17.06,3.52,3.52,0,0,1,1.15.66Zm-2.32-.71,2.29.72L17,7A2.27,2.27,0,0,1,15.79,7a3.45,3.45,0,0,1-1.15-.67Zm1.76,4.16s.39-.08.57.12.07.62.07.62l.31-.33-.64-.73Zm1.26.1s-.39.09-.56-.12-.08-.62-.08-.62l-.31.33.64.73Zm-2.1-1.08-1-.17-.13.43s.31-.3.58-.25.39.43.39.43Zm-1-.16.95.17.13-.44s-.31.3-.57.26-.39-.43-.39-.43Zm-3.24,8.94A.89.89,0,1,0,11,17.44.89.89,0,0,0,11.34,18.65ZM9.88,21.22a.88.88,0,0,0,1.21-.33.9.9,0,0,0-.33-1.21.89.89,0,0,0-.88,1.54ZM11,19.94a1.2,1.2,0,0,1,.09-.74,1.17,1.17,0,0,1,.59-.46l-.32-.16-.68,1.18Zm.06-1.55a1,1,0,0,1-.68,1.2l.32.16.67-1.18Zm-.92,1.31A3.6,3.6,0,0,1,9,19a2.26,2.26,0,0,1-.65-1l-.31.22L9.84,19.9ZM7.71,18.48a3.37,3.37,0,0,1,1.16.65,2.26,2.26,0,0,1,.65,1l.31-.22L8,18.27ZM11,20.57l2.29.72,0-.38a2.27,2.27,0,0,1-1.16-.06A3.56,3.56,0,0,1,11,20.18Zm2.32.72-2.3-.72L11,21a2.31,2.31,0,0,1,1.17.06,3.59,3.59,0,0,1,1.15.67Zm-1.76-4.17s-.39.09-.57-.11-.07-.62-.07-.62l-.31.33.63.73ZM10.32,17s.39-.09.57.11a.85.85,0,0,1,.08.63l.3-.34-.63-.73Zm2.11,1.08,1,.17.13-.43s-.31.3-.57.25-.39-.43-.39-.43Zm1,.16-1-.17-.12.43s.3-.3.57-.25.39.43.39.43ZM9.33,11.34a.88.88,0,0,0,.33,1.21.9.9,0,0,0,1.21-.33.89.89,0,0,0-1.54-.88ZM6.75,9.88A.89.89,0,1,0,8,9.55.9.9,0,0,0,6.75,9.88ZM8,11a1.17,1.17,0,0,1,.73.09,1.17,1.17,0,0,1,.46.59l.17-.32-1.18-.68Zm1.55.06a1.16,1.16,0,0,1-.74-.1,1.17,1.17,0,0,1-.46-.58l-.17.32,1.19.67Zm-1.31-.92A3.69,3.69,0,0,1,8.93,9a2.32,2.32,0,0,1,1-.65l-.22-.31L8.08,9.84ZM9.5,7.71a3.58,3.58,0,0,1-.65,1.16,2.32,2.32,0,0,1-1,.65l.22.31L9.7,8ZM7.4,11l-.71,2.29.38,0a2.27,2.27,0,0,1,.06-1.16A3.63,3.63,0,0,1,7.79,11Zm-.71,2.32.72-2.3L7,11A2.31,2.31,0,0,1,7,12.19a3.59,3.59,0,0,1-.67,1.15Zm4.16-1.76s-.08-.39.12-.57.62-.07.62-.07l-.33-.31-.73.63Zm.1-1.27s.09.39-.12.57-.62.08-.62.08l.33.3.73-.63ZM9.87,12.43l-.17,1,.43.13s-.3-.31-.25-.57.43-.39.43-.39Zm-.16,1,.17-1-.44-.12s.3.3.26.57-.43.39-.43.39Zm8.94,3.23a.88.88,0,1,0-1.21.33A.88.88,0,0,0,18.65,16.63Zm2.57,1.47a.88.88,0,0,0-.33-1.21.9.9,0,0,0-1.21.33.89.89,0,0,0,1.54.88ZM19.94,17a1.16,1.16,0,0,1-.74-.1,1.13,1.13,0,0,1-.46-.58l-.16.32,1.18.67Zm-1.55-.06a1.16,1.16,0,0,1,.74.1,1.13,1.13,0,0,1,.46.58l.16-.32-1.18-.67Zm1.31.91A3.6,3.6,0,0,1,19,19a2.29,2.29,0,0,1-1,.64l.22.31,1.61-1.79Zm-1.22,2.47a3.47,3.47,0,0,1,.65-1.17,2.29,2.29,0,0,1,1-.64l-.22-.32-1.61,1.79ZM20.57,17l.72-2.3-.38,0a2.31,2.31,0,0,1-.06,1.17,3.45,3.45,0,0,1-.67,1.15Zm.72-2.32-.72,2.29L21,17A2.27,2.27,0,0,1,21,15.79a3.45,3.45,0,0,1,.67-1.15Zm-4.17,1.76s.09.39-.11.57-.62.07-.62.07l.33.31.73-.64ZM17,17.65s-.09-.39.11-.56a.85.85,0,0,1,.63-.08l-.34-.31-.73.64Zm1.08-2.1.17-1-.43-.13s.3.31.25.58-.43.39-.43.39Zm.16-1-.17.95.43.13s-.3-.31-.25-.57.43-.39.43-.39Zm.35-3.29A.89.89,0,0,0,17.41,11a.89.89,0,1,0,1.21.32Zm2.56-1.48A.88.88,0,1,0,20.86,11,.89.89,0,0,0,21.18,9.81Zm-1.64.53a1.13,1.13,0,0,1-.45.59,1.16,1.16,0,0,1-.74.1l.2.3,1.17-.68Zm-.83,1.31a1.17,1.17,0,0,1,.46-.59,1.13,1.13,0,0,1,.73-.1l-.19-.31-1.18.68ZM20.16,11a3.45,3.45,0,0,1,.67,1.15,2.29,2.29,0,0,1,.08,1.16l.38,0L20.55,11Zm1.51,2.29A3.58,3.58,0,0,1,21,12.12,2.35,2.35,0,0,1,20.92,11l-.38,0,.74,2.29ZM19.86,9.79,18.24,8,18,8.33A2.23,2.23,0,0,1,19,9a3.5,3.5,0,0,1,.66,1.15ZM18.22,8l1.62,1.78.22-.31a2.35,2.35,0,0,1-1-.64,3.6,3.6,0,0,1-.66-1.16Zm-.58,4.49s.38.12.43.38-.25.58-.25.58l.44-.13-.18-1Zm1.05.72s-.39-.12-.44-.39.25-.57.25-.57l-.43.13.18.95Zm-1.28-2-.74-.63-.33.32s.42-.11.63.07.12.56.12.56Zm-.75-.62.73.62.33-.31s-.42.11-.62-.07-.12-.56-.12-.56Zm-7.3,6.09a.88.88,0,0,0,1.21.33.89.89,0,0,0-.89-1.54A.89.89,0,0,0,9.36,16.68ZM6.8,18.17a.89.89,0,0,0,1.53-.89A.89.89,0,0,0,7.12,17,.89.89,0,0,0,6.8,18.17Zm1.64-.53a1.13,1.13,0,0,1,.45-.59,1.13,1.13,0,0,1,.73-.1l-.19-.31-1.18.69Zm.82-1.31a1.13,1.13,0,0,1-.45.59,1.16,1.16,0,0,1-.74.1l.2.31,1.18-.69ZM7.82,17a3.58,3.58,0,0,1-.68-1.15,2.34,2.34,0,0,1-.07-1.16l-.38,0L7.43,17ZM6.31,14.71A3.48,3.48,0,0,1,7,15.85,2.25,2.25,0,0,1,7.05,17l.38,0L6.69,14.7Zm1.81,3.48L9.74,20l.21-.31A2.35,2.35,0,0,1,9,19a3.5,3.5,0,0,1-.66-1.15ZM9.76,20,8.14,18.2l-.22.31a2.35,2.35,0,0,1,1,.64,3.5,3.5,0,0,1,.66,1.16Zm.58-4.48s-.39-.12-.44-.39.25-.57.25-.57l-.43.13.18.95Zm-1.05-.72s.38.12.43.39-.25.57-.25.57l.44-.13-.18-.95Zm1.28,2,.73.63.34-.31s-.42.11-.63-.07-.12-.56-.12-.56Zm.75.63-.73-.63-.34.31a.88.88,0,0,1,.63.07c.2.18.12.57.12.57Zm0-8a.89.89,0,1,0,1.21.32A.89.89,0,0,0,11.29,9.36ZM9.81,6.8A.88.88,0,0,0,9.48,8,.89.89,0,0,0,11,7.12.89.89,0,0,0,9.81,6.8Zm.53,1.64a1.13,1.13,0,0,1,.59.45,1.13,1.13,0,0,1,.1.73l.3-.19-.68-1.18Zm1.31.82a1.13,1.13,0,0,1-.59-.45,1.16,1.16,0,0,1-.1-.74l-.31.2.68,1.18ZM11,7.82a3.58,3.58,0,0,1,1.15-.68,2.35,2.35,0,0,1,1.16-.07l0-.38L11,7.43Zm2.29-1.51A3.45,3.45,0,0,1,12.12,7,2.22,2.22,0,0,1,11,7.05l0,.38,2.29-.74ZM9.79,8.12,8,9.74l.32.21A2.23,2.23,0,0,1,9,9a3.5,3.5,0,0,1,1.15-.66ZM8,9.76,9.78,8.14l-.31-.22a2.35,2.35,0,0,1-.64,1,3.6,3.6,0,0,1-1.16.66Zm4.49.58s.12-.39.38-.44.58.25.58.25l-.13-.43-1,.18Zm.72-1.05s-.12.38-.39.43-.57-.25-.57-.25l.13.44.95-.18Zm-2,1.28-.63.73.32.34s-.11-.42.07-.63.56-.12.56-.12Zm-.62.75.62-.73-.31-.34s.11.42-.07.63-.56.12-.56.12Zm6.09,7.3a.88.88,0,1,0-1.21-.32A.89.89,0,0,0,16.68,18.62Zm1.49,2.56A.89.89,0,1,0,17,20.86.89.89,0,0,0,18.17,21.18Zm-.53-1.64a1.13,1.13,0,0,1-.59-.45,1.16,1.16,0,0,1-.1-.74l-.31.2.69,1.17Zm-1.31-.83a1.17,1.17,0,0,1,.59.46,1.13,1.13,0,0,1,.1.73l.31-.19-.69-1.18ZM17,20.16a3.45,3.45,0,0,1-1.15.67,2.28,2.28,0,0,1-1.16.08l0,.38L17,20.55Zm-2.29,1.51A3.61,3.61,0,0,1,15.85,21,2.39,2.39,0,0,1,17,20.92l0-.38-2.28.74Zm3.48-1.81L20,18.24,19.65,18A2.35,2.35,0,0,1,19,19a3.5,3.5,0,0,1-1.15.66ZM20,18.22,18.2,19.84l.31.22a2.35,2.35,0,0,1,.64-1,3.5,3.5,0,0,1,1.16-.66Zm-4.48-.58s-.12.38-.39.43-.57-.25-.57-.25l.13.44.95-.18Zm-.72,1.05s.12-.39.39-.44.57.25.57.25l-.13-.43-.95.18Zm2-1.28.63-.74-.31-.33s.11.42-.07.63-.56.12-.56.12Zm.63-.75-.63.73.31.33s-.1-.42.07-.62.57-.12.57-.12ZM14,19.35a.89.89,0,1,0,0-1.77.89.89,0,0,0,0,1.77Zm0,3a.89.89,0,1,0,0-1.77.89.89,0,0,0,0,1.77Zm.37-1.68a1,1,0,0,1,0-1.38H14v1.37Zm-.72-1.38a1,1,0,0,1,0,1.38l.36,0V19.25Zm-.15,1.59a3.68,3.68,0,0,1-1.33,0,2.3,2.3,0,0,1-1-.52l-.16.35,2.35.51ZM10.75,21a3.56,3.56,0,0,1,1.33,0,2.29,2.29,0,0,1,1,.53l.17-.35-2.35-.51Zm3.92.19L17,20.67l-.16-.35a2.3,2.3,0,0,1-1,.52,3.73,3.73,0,0,1-1.34,0ZM17,20.65l-2.35.51.16.35a2.37,2.37,0,0,1,1-.53,3.6,3.6,0,0,1,1.34,0ZM13.45,17.9s-.29.27-.55.18-.37-.5-.37-.5l-.1.44.91.32Zm-1.14.54s.29-.27.55-.18.37.51.37.51l.1-.45L12.42,18Zm2.36-.1.92-.32-.11-.44s-.12.41-.37.5-.55-.18-.55-.18Zm.92-.34-.91.32.1.45s.12-.42.38-.51.55.18.55.18Zm-7-4a.89.89,0,1,0,.89-.88A.89.89,0,0,0,8.63,14Zm-3,0a.89.89,0,1,0,.88-.88A.89.89,0,0,0,5.67,14Zm1.68.37A1.15,1.15,0,0,1,8,14.07a1.15,1.15,0,0,1,.69.29l0-.37H7.35Zm1.38-.72a1.17,1.17,0,0,1-.69.28,1.17,1.17,0,0,1-.69-.28l0,.36H8.73Zm-1.59-.15a3.56,3.56,0,0,1,0-1.33,2.37,2.37,0,0,1,.53-1L7.31,11,6.8,13.31ZM7,10.75a3.68,3.68,0,0,1,0,1.33,2.23,2.23,0,0,1-.52,1l.35.17.51-2.35ZM6.8,14.67,7.31,17l.35-.16a2.37,2.37,0,0,1-.53-1,3.6,3.6,0,0,1,0-1.34ZM7.33,17l-.51-2.35-.35.16a2.3,2.3,0,0,1,.52,1,3.73,3.73,0,0,1,0,1.34Zm2.75-3.59s-.27-.29-.18-.55.5-.37.5-.37l-.44-.1-.32.91Zm-.55-1.14s.27.29.18.55-.5.37-.5.37l.44.1.32-.91Zm.11,2.36.32.92.44-.11s-.41-.12-.5-.37.18-.55.18-.55Zm.33.92-.32-.91-.44.1s.41.12.5.38-.18.55-.18.55ZM19.35,14a.89.89,0,1,0-.89.89A.88.88,0,0,0,19.35,14Zm3,0a.89.89,0,1,0-.89.89A.88.88,0,0,0,22.31,14Zm-1.68-.36a1,1,0,0,1-1.38,0V14h1.37Zm-1.38.72a1,1,0,0,1,1.38,0l0-.37H19.25Zm1.59.14a3.73,3.73,0,0,1,0,1.34,2.3,2.3,0,0,1-.52,1l.35.16.51-2.35ZM21,17.23a3.6,3.6,0,0,1,0-1.34,2.37,2.37,0,0,1,.53-1l-.35-.16L20.65,17Zm.19-3.92L20.67,11l-.35.16a2.3,2.3,0,0,1,.52,1,3.68,3.68,0,0,1,0,1.33Zm-.53-2.37.51,2.35.35-.17a2.29,2.29,0,0,1-.53-1,3.56,3.56,0,0,1,0-1.33ZM17.9,14.52s.27.3.18.55-.5.38-.5.38l.44.1.32-.91Zm.54,1.15s-.27-.29-.18-.55.51-.37.51-.37l-.45-.11-.32.92Zm-.1-2.36L18,12.39l-.44.11s.41.12.5.37-.18.55-.18.55ZM18,12.39l.32.91.45-.1s-.42-.12-.51-.38.18-.55.18-.55Z"/></g><g id="art_copy_7-2" data-name="art copy 7"><circle class="cls-3" cx="13.98" cy="13.96" r="0.89"/><circle class="cls-3" cx="13.98" cy="9.52" r="0.89"/><circle class="cls-3" cx="13.98" cy="6.55" r="0.89"/><path class="cls-3" d="M14,7.35V8.71l-.36,0A1.17,1.17,0,0,0,13.9,8a1.17,1.17,0,0,0-.28-.69Z"/><path class="cls-3" d="M14,8.73V7.37l.37,0a1.15,1.15,0,0,0-.29.69,1.15,1.15,0,0,0,.29.69Z"/><path class="cls-3" d="M14.67,6.8,17,7.31l-.16.35a2.37,2.37,0,0,0-1-.53,3.6,3.6,0,0,0-1.34,0Z"/><path class="cls-3" d="M17,7.33l-2.35-.51.16-.35a2.3,2.3,0,0,0,1,.52,3.73,3.73,0,0,0,1.34,0Z"/><path class="cls-3" d="M13.31,6.8,11,7.31l.16.35a2.37,2.37,0,0,1,1-.53,3.56,3.56,0,0,1,1.33,0Z"/><path class="cls-3" d="M10.94,7.33l2.35-.51-.17-.35a2.23,2.23,0,0,1-1,.52,3.68,3.68,0,0,1-1.33,0Z"/><path class="cls-3" d="M14.64,9.64l.91.32-.1.44s-.12-.41-.38-.5-.55.18-.55.18Z"/><path class="cls-3" d="M15.56,10l-.92-.32.11-.44s.12.41.37.5.55-.18.55-.18Z"/><path class="cls-3" d="M13.31,9.64l-.92.32.11.44s.12-.41.37-.5.55.18.55.18Z"/><path class="cls-3" d="M12.39,10l.91-.32-.1-.44s-.12.41-.38.5-.55-.18-.55-.18Z"/><circle class="cls-3" cx="16.19" cy="10.1" r="0.89"/><circle class="cls-3" cx="17.66" cy="7.52" r="0.89"/><path class="cls-3" d="M17.26,8.22,16.59,9.4l-.32-.17a1.13,1.13,0,0,0,.58-.46A1.13,1.13,0,0,0,17,8Z"/><path class="cls-3" d="M16.58,9.41l.67-1.19.32.17a1.13,1.13,0,0,0-.58.46,1.16,1.16,0,0,0-.1.74Z"/><path class="cls-3" d="M18.13,8.08l1.79,1.6-.31.22a2.35,2.35,0,0,0-.64-1,3.69,3.69,0,0,0-1.17-.65Z"/><path class="cls-3" d="M19.93,9.7,18.14,8.1l.32-.22a2.35,2.35,0,0,0,.64,1,3.69,3.69,0,0,0,1.17.65Z"/><path class="cls-3" d="M17,7.4l-2.3-.71,0,.38a2.31,2.31,0,0,1,1.17.06,3.52,3.52,0,0,1,1.15.66Z"/><path class="cls-3" d="M14.63,6.69l2.29.72L17,7A2.27,2.27,0,0,1,15.79,7a3.45,3.45,0,0,1-1.15-.67Z"/><path class="cls-3" d="M16.7,10.53l.64.73-.31.33s.1-.42-.07-.62-.57-.12-.57-.12Z"/><path class="cls-3" d="M17.34,11.27l-.64-.73.31-.33s-.1.42.08.62.56.12.56.12Z"/><path class="cls-3" d="M15.55,9.87l-1-.17-.13.43s.31-.3.58-.25.39.43.39.43Z"/><path class="cls-3" d="M14.58,9.71l.95.17.13-.44s-.31.3-.57.26-.39-.43-.39-.43Z"/><circle class="cls-3" cx="11.78" cy="17.88" r="0.89"/><circle class="cls-3" cx="10.32" cy="20.45" r="0.89"/><path class="cls-3" d="M10.71,19.76l.68-1.18.32.16a1.17,1.17,0,0,0-.59.46,1.2,1.2,0,0,0-.09.74Z"/><path class="cls-3" d="M11.4,18.57l-.67,1.18-.32-.16a1,1,0,0,0,.68-1.2Z"/><path class="cls-3" d="M9.84,19.9,8.05,18.29l.31-.22A2.26,2.26,0,0,0,9,19a3.6,3.6,0,0,0,1.16.66Z"/><path class="cls-3" d="M8,18.27l1.79,1.61-.31.22a2.26,2.26,0,0,0-.65-1,3.37,3.37,0,0,0-1.16-.65Z"/><path class="cls-3" d="M11,20.57l2.29.72,0-.38a2.27,2.27,0,0,1-1.16-.06A3.56,3.56,0,0,1,11,20.18Z"/><path class="cls-3" d="M13.35,21.29l-2.3-.72L11,21a2.31,2.31,0,0,1,1.17.06,3.59,3.59,0,0,1,1.15.67Z"/><path class="cls-3" d="M11.27,17.45l-.63-.73.31-.33s-.11.42.07.62.57.11.57.11Z"/><path class="cls-3" d="M10.64,16.7l.63.73-.3.34a.85.85,0,0,0-.08-.63c-.18-.2-.57-.11-.57-.11Z"/><path class="cls-3" d="M12.43,18.11l1,.17.13-.43s-.31.3-.57.25-.39-.43-.39-.43Z"/><path class="cls-3" d="M13.4,18.27l-1-.17-.12.43s.3-.3.57-.25.39.43.39.43Z"/><circle class="cls-3" cx="10.1" cy="11.78" r="0.89"/><circle class="cls-3" cx="7.52" cy="10.32" r="0.89"/><path class="cls-3" d="M8.22,10.71l1.18.68-.17.32a1.17,1.17,0,0,0-.46-.59A1.17,1.17,0,0,0,8,11Z"/><path class="cls-3" d="M9.41,11.4l-1.19-.67.17-.32a1.17,1.17,0,0,0,.46.58,1.16,1.16,0,0,0,.74.1Z"/><path class="cls-3" d="M8.08,9.84l1.6-1.79.22.31a2.32,2.32,0,0,0-1,.65,3.69,3.69,0,0,0-.65,1.16Z"/><path class="cls-3" d="M9.7,8,8.1,9.83l-.22-.31a2.32,2.32,0,0,0,1-.65A3.58,3.58,0,0,0,9.5,7.71Z"/><path class="cls-3" d="M7.4,11l-.71,2.29.38,0a2.27,2.27,0,0,1,.06-1.16A3.63,3.63,0,0,1,7.79,11Z"/><path class="cls-3" d="M6.69,13.35l.72-2.3L7,11A2.31,2.31,0,0,1,7,12.19a3.59,3.59,0,0,1-.67,1.15Z"/><path class="cls-3" d="M10.53,11.27l.73-.63.33.31s-.42-.11-.62.07-.12.57-.12.57Z"/><path class="cls-3" d="M11.27,10.64l-.73.63-.33-.3s.42.1.62-.08.12-.57.12-.57Z"/><path class="cls-3" d="M9.87,12.43l-.17,1,.43.13s-.3-.31-.25-.57.43-.39.43-.39Z"/><path class="cls-3" d="M9.71,13.4l.17-1-.44-.12s.3.3.26.57-.43.39-.43.39Z"/><circle class="cls-3" cx="17.88" cy="16.19" r="0.89"/><circle class="cls-3" cx="20.45" cy="17.66" r="0.89"/><path class="cls-3" d="M19.76,17.26l-1.18-.67.16-.32a1.13,1.13,0,0,0,.46.58,1.16,1.16,0,0,0,.74.1Z"/><path class="cls-3" d="M18.57,16.58l1.18.67-.16.32a1.13,1.13,0,0,0-.46-.58,1.16,1.16,0,0,0-.74-.1Z"/><path class="cls-3" d="M19.9,18.13l-1.61,1.79-.22-.31A2.29,2.29,0,0,0,19,19a3.6,3.6,0,0,0,.66-1.17Z"/><path class="cls-3" d="M18.27,19.93l1.61-1.79.22.32a2.29,2.29,0,0,0-1,.64,3.47,3.47,0,0,0-.65,1.17Z"/><path class="cls-3" d="M20.57,17l.72-2.3-.38,0a2.31,2.31,0,0,1-.06,1.17,3.45,3.45,0,0,1-.67,1.15Z"/><path class="cls-3" d="M21.29,14.63l-.72,2.29L21,17A2.27,2.27,0,0,1,21,15.79a3.45,3.45,0,0,1,.67-1.15Z"/><path class="cls-3" d="M17.45,16.7l-.73.64L16.39,17s.42.1.62-.07.11-.57.11-.57Z"/><path class="cls-3" d="M16.7,17.34l.73-.64.34.31a.85.85,0,0,0-.63.08c-.2.17-.11.56-.11.56Z"/><path class="cls-3" d="M18.11,15.55l.17-1-.43-.13s.3.31.25.58-.43.39-.43.39Z"/><path class="cls-3" d="M18.27,14.58l-.17.95.43.13s-.3-.31-.25-.57.43-.39.43-.39Z"/><circle class="cls-3" cx="17.85" cy="11.74" r="0.89"/><circle class="cls-3" cx="20.41" cy="10.25" r="0.89"/><path class="cls-3" d="M19.72,10.65l-1.17.68-.2-.3a1.16,1.16,0,0,0,.74-.1,1.13,1.13,0,0,0,.45-.59Z"/><path class="cls-3" d="M18.53,11.33l1.18-.68.19.31a1.13,1.13,0,0,0-.73.1,1.17,1.17,0,0,0-.46.59Z"/><path class="cls-3" d="M20.55,11l.74,2.29-.38,0a2.29,2.29,0,0,0-.08-1.16A3.45,3.45,0,0,0,20.16,11Z"/><path class="cls-3" d="M21.28,13.28,20.54,11l.38,0A2.35,2.35,0,0,0,21,12.12a3.58,3.58,0,0,0,.68,1.15Z"/><path class="cls-3" d="M19.86,9.79,18.24,8,18,8.33A2.23,2.23,0,0,1,19,9a3.5,3.5,0,0,1,.66,1.15Z"/><path class="cls-3" d="M18.22,8l1.62,1.78.22-.31a2.35,2.35,0,0,1-1-.64,3.6,3.6,0,0,1-.66-1.16Z"/><path class="cls-3" d="M18.08,12.36l.18,1-.44.13s.3-.31.25-.58-.43-.38-.43-.38Z"/><path class="cls-3" d="M18.25,13.33l-.18-.95.43-.13s-.3.31-.25.57.44.39.44.39Z"/><path class="cls-3" d="M17.41,11.21l-.74-.63-.33.32s.42-.11.63.07.12.56.12.56Z"/><path class="cls-3" d="M16.66,10.59l.73.62.33-.31s-.42.11-.62-.07-.12-.56-.12-.56Z"/><circle class="cls-3" cx="10.12" cy="16.24" r="0.89"/><circle class="cls-3" cx="7.56" cy="17.73" r="0.89"/><path class="cls-3" d="M8.25,17.33l1.18-.69.19.31a1.13,1.13,0,0,0-.73.1,1.13,1.13,0,0,0-.45.59Z"/><path class="cls-3" d="M9.45,16.64l-1.18.69L8.07,17a1.16,1.16,0,0,0,.74-.1,1.13,1.13,0,0,0,.45-.59Z"/><path class="cls-3" d="M7.43,17l-.74-2.29.38,0a2.34,2.34,0,0,0,.07,1.16A3.58,3.58,0,0,0,7.82,17Z"/><path class="cls-3" d="M6.69,14.7,7.43,17l-.38,0A2.25,2.25,0,0,0,7,15.85a3.48,3.48,0,0,0-.67-1.14Z"/><path class="cls-3" d="M8.12,18.19,9.74,20l.21-.31A2.35,2.35,0,0,1,9,19a3.5,3.5,0,0,1-.66-1.15Z"/><path class="cls-3" d="M9.76,20,8.14,18.2l-.22.31a2.35,2.35,0,0,1,1,.64,3.5,3.5,0,0,1,.66,1.16Z"/><path class="cls-3" d="M9.9,15.61l-.18-.95.43-.13s-.3.31-.25.57.44.39.44.39Z"/><path class="cls-3" d="M9.73,14.65l.18.95-.44.13s.3-.31.25-.57-.43-.39-.43-.39Z"/><path class="cls-3" d="M10.57,16.76l.73.63.34-.31s-.42.11-.63-.07-.12-.56-.12-.56Z"/><path class="cls-3" d="M11.32,17.39l-.73-.63-.34.31a.88.88,0,0,1,.63.07c.2.18.12.57.12.57Z"/><circle class="cls-3" cx="11.74" cy="10.12" r="0.89"/><circle class="cls-3" cx="10.25" cy="7.56" r="0.89"/><path class="cls-3" d="M10.65,8.25l.68,1.18-.3.19a1.13,1.13,0,0,0-.1-.73,1.13,1.13,0,0,0-.59-.45Z"/><path class="cls-3" d="M11.33,9.45l-.68-1.18.31-.2a1.16,1.16,0,0,0,.1.74,1.13,1.13,0,0,0,.59.45Z"/><path class="cls-3" d="M11,7.43l2.29-.74,0,.38a2.35,2.35,0,0,0-1.16.07A3.58,3.58,0,0,0,11,7.82Z"/><path class="cls-3" d="M13.28,6.69,11,7.43l0-.38A2.22,2.22,0,0,0,12.12,7a3.45,3.45,0,0,0,1.15-.67Z"/><path class="cls-3" d="M9.79,8.12,8,9.74l.32.21A2.23,2.23,0,0,1,9,9a3.5,3.5,0,0,1,1.15-.66Z"/><path class="cls-3" d="M8,9.76,9.78,8.14l-.31-.22a2.35,2.35,0,0,1-.64,1,3.6,3.6,0,0,1-1.16.66Z"/><path class="cls-3" d="M12.36,9.9l1-.18.13.43s-.31-.3-.58-.25-.38.44-.38.44Z"/><path class="cls-3" d="M13.33,9.73l-.95.18-.13-.44s.31.3.57.25.39-.43.39-.43Z"/><path class="cls-3" d="M11.21,10.57l-.63.73.32.34s-.11-.42.07-.63.56-.12.56-.12Z"/><path class="cls-3" d="M10.59,11.32l.62-.73-.31-.34s.11.42-.07.63-.56.12-.56.12Z"/><circle class="cls-3" cx="16.24" cy="17.85" r="0.89"/><circle class="cls-3" cx="17.73" cy="20.41" r="0.89"/><path class="cls-3" d="M17.33,19.72l-.69-1.17.31-.2a1.16,1.16,0,0,0,.1.74,1.13,1.13,0,0,0,.59.45Z"/><path class="cls-3" d="M16.64,18.53l.69,1.18L17,19.9a1.13,1.13,0,0,0-.1-.73,1.17,1.17,0,0,0-.59-.46Z"/><path class="cls-3" d="M17,20.55l-2.29.74,0-.38a2.28,2.28,0,0,0,1.16-.08A3.45,3.45,0,0,0,17,20.16Z"/><path class="cls-3" d="M14.7,21.28,17,20.54l0,.38a2.39,2.39,0,0,0-1.17.07,3.61,3.61,0,0,0-1.14.68Z"/><path class="cls-3" d="M18.19,19.86,20,18.24,19.65,18A2.35,2.35,0,0,1,19,19a3.5,3.5,0,0,1-1.15.66Z"/><path class="cls-3" d="M20,18.22,18.2,19.84l.31.22a2.35,2.35,0,0,1,.64-1,3.5,3.5,0,0,1,1.16-.66Z"/><path class="cls-3" d="M15.61,18.08l-.95.18-.13-.44s.31.3.57.25.39-.43.39-.43Z"/><path class="cls-3" d="M14.65,18.25l.95-.18.13.43s-.31-.3-.57-.25-.39.44-.39.44Z"/><path class="cls-3" d="M16.76,17.41l.63-.74-.31-.33s.11.42-.07.63-.56.12-.56.12Z"/><path class="cls-3" d="M17.39,16.66l-.63.73.31.33s-.1-.42.07-.62.57-.12.57-.12Z"/><circle class="cls-3" cx="13.99" cy="18.46" r="0.89"/><circle class="cls-3" cx="13.99" cy="21.42" r="0.89"/><path class="cls-3" d="M14,20.63V19.26h.37a1,1,0,0,0,0,1.38Z"/><path class="cls-3" d="M14,19.25v1.36l-.36,0a1,1,0,0,0,0-1.38Z"/><path class="cls-3" d="M13.31,21.18,11,20.67l.16-.35a2.3,2.3,0,0,0,1,.52,3.68,3.68,0,0,0,1.33,0Z"/><path class="cls-3" d="M10.94,20.65l2.35.51-.17.35a2.29,2.29,0,0,0-1-.53,3.56,3.56,0,0,0-1.33,0Z"/><path class="cls-3" d="M14.67,21.18,17,20.67l-.16-.35a2.3,2.3,0,0,1-1,.52,3.73,3.73,0,0,1-1.34,0Z"/><path class="cls-3" d="M17,20.65l-2.35.51.16.35a2.37,2.37,0,0,1,1-.53,3.6,3.6,0,0,1,1.34,0Z"/><path class="cls-3" d="M13.34,18.34,12.43,18l.1-.44s.12.41.37.5.55-.18.55-.18Z"/><path class="cls-3" d="M12.42,18l.91.32-.1.45s-.12-.42-.37-.51-.55.18-.55.18Z"/><path class="cls-3" d="M14.67,18.34l.92-.32-.11-.44s-.12.41-.37.5-.55-.18-.55-.18Z"/><path class="cls-3" d="M15.59,18l-.91.32.1.45s.12-.42.38-.51.55.18.55.18Z"/><circle class="cls-3" cx="9.52" cy="13.99" r="0.89"/><circle class="cls-3" cx="6.55" cy="13.99" r="0.89"/><path class="cls-3" d="M7.35,14H8.71l0,.37A1.15,1.15,0,0,0,8,14.07a1.15,1.15,0,0,0-.69.29Z"/><path class="cls-3" d="M8.73,14H7.37l0-.36a1.17,1.17,0,0,0,.69.28,1.17,1.17,0,0,0,.69-.28Z"/><path class="cls-3" d="M6.8,13.31,7.31,11l.35.16a2.37,2.37,0,0,0-.53,1,3.56,3.56,0,0,0,0,1.33Z"/><path class="cls-3" d="M7.33,10.94l-.51,2.35-.35-.17a2.23,2.23,0,0,0,.52-1,3.68,3.68,0,0,0,0-1.33Z"/><path class="cls-3" d="M6.8,14.67,7.31,17l.35-.16a2.37,2.37,0,0,1-.53-1,3.6,3.6,0,0,1,0-1.34Z"/><path class="cls-3" d="M7.33,17l-.51-2.35-.35.16a2.3,2.3,0,0,1,.52,1,3.73,3.73,0,0,1,0,1.34Z"/><path class="cls-3" d="M9.64,13.34l.32-.91.44.1s-.41.12-.5.37.18.55.18.55Z"/><path class="cls-3" d="M10,12.42l-.32.91-.44-.1s.41-.12.5-.37-.18-.55-.18-.55Z"/><path class="cls-3" d="M9.64,14.67l.32.92.44-.11s-.41-.12-.5-.37.18-.55.18-.55Z"/><path class="cls-3" d="M10,15.59l-.32-.91-.44.1s.41.12.5.38-.18.55-.18.55Z"/><circle class="cls-3" cx="18.46" cy="13.98" r="0.89"/><circle class="cls-3" cx="21.42" cy="13.98" r="0.89"/><path class="cls-3" d="M20.63,14H19.26v-.36a1,1,0,0,0,1.38,0Z"/><path class="cls-3" d="M19.25,14h1.36l0,.37a1,1,0,0,0-1.38,0Z"/><path class="cls-3" d="M21.18,14.67,20.67,17l-.35-.16a2.3,2.3,0,0,0,.52-1,3.73,3.73,0,0,0,0-1.34Z"/><path class="cls-3" d="M20.65,17l.51-2.35.35.16a2.37,2.37,0,0,0-.53,1,3.6,3.6,0,0,0,0,1.34Z"/><path class="cls-3" d="M21.18,13.31,20.67,11l-.35.16a2.3,2.3,0,0,1,.52,1,3.68,3.68,0,0,1,0,1.33Z"/><path class="cls-3" d="M20.65,10.94l.51,2.35.35-.17a2.29,2.29,0,0,1-.53-1,3.56,3.56,0,0,1,0-1.33Z"/><path class="cls-3" d="M18.34,14.64l-.32.91-.44-.1s.41-.12.5-.38-.18-.55-.18-.55Z"/><path class="cls-3" d="M18,15.56l.32-.92.45.11s-.42.12-.51.37.18.55.18.55Z"/><path class="cls-3" d="M18.34,13.31,18,12.39l-.44.11s.41.12.5.37-.18.55-.18.55Z"/><path class="cls-3" d="M18,12.39l.32.91.45-.1s-.42-.12-.51-.38.18-.55.18-.55Z"/></g></g></svg>