<svg xmlns="http://www.w3.org/2000/svg" viewBox="0 0 48.23 48.23"><title>Artboard 1</title><path d="M26.06,24a2,2,0,1,1-2-2A2,2,0,0,1,26.06,24Zm-2-11.81a2,2,0,1,0,2,2A2,2,0,0,0,24.1,12.23Zm0-6.56a2,2,0,1,0,2,2A2,2,0,0,0,24.1,5.67ZM23.29,9.4a2.57,2.57,0,0,1,.63,1.52,2.58,2.58,0,0,1-.63,1.53l.81,0v-3Zm1.6,3a2.58,2.58,0,0,1-.63-1.53,2.57,2.57,0,0,1,.63-1.52l-.81,0v3Zm.32-3.52a7.86,7.86,0,0,1,3,0,5.14,5.14,0,0,1,2.31,1.15l.36-.76L25.63,8.18Zm6.08-.34a7.8,7.8,0,0,1-2.95,0A5.07,5.07,0,0,1,26,7.45l-.36.76,5.21,1.13ZM22.6,8.18,17.39,9.31l.36.76a5.07,5.07,0,0,1,2.31-1.15,7.86,7.86,0,0,1,3,0ZM17.35,9.34l5.21-1.13-.36-.76A5.07,5.07,0,0,1,19.89,8.6a7.86,7.86,0,0,1-3,0Zm8,6.1s.66-.6,1.22-.4.83,1.12.83,1.12l.23-1-2-.71Zm2.55-1.2s-.66.59-1.22.4-.83-1.12-.83-1.12l-.23,1,2,.71Zm-5.25.23-2,.71.23,1s.27-.92.83-1.12,1.22.4,1.22.4Zm-2,.74,2-.71-.23-1s-.27.92-.83,1.12-1.22-.4-1.22-.4ZM30,13.78a2,2,0,1,0,.73,2.68A2,2,0,0,0,30,13.78Zm3.24-5.71A2,2,0,1,0,34,10.75,2,2,0,0,0,33.22,8.07Zm-2.54,2.85a2.59,2.59,0,0,1-.21,1.63,2.6,2.6,0,0,1-1.3,1l.71.37,1.5-2.62Zm-.13,3.44a2.54,2.54,0,0,1,.21-1.64,2.56,2.56,0,0,1,1.3-1l-.72-.37L29.85,14Zm2-2.9a7.88,7.88,0,0,1,2.58,1.45,5,5,0,0,1,1.43,2.14l.7-.48L33.3,11ZM38,14.17a8,8,0,0,1-2.58-1.45A5.09,5.09,0,0,1,34,10.57l-.69.49,4,3.56ZM30.68,9.52l-5.09-1.6-.07.85a5.09,5.09,0,0,1,2.58.13,7.72,7.72,0,0,1,2.56,1.48ZM25.54,7.93l5.08,1.59.07-.84a5,5,0,0,1-2.58-.14,7.92,7.92,0,0,1-2.56-1.47Zm3.9,9.23s.86-.19,1.25.26.17,1.38.17,1.38l.68-.74-1.4-1.62Zm2.8.21s-.87.2-1.26-.25-.16-1.38-.16-1.38l-.69.74,1.41,1.62ZM27.57,15l-2.12-.38-.28,1s.68-.67,1.27-.56.86.95.86.95Zm-2.15-.36,2.12.38.28-1s-.68.66-1.27.56-.86-.95-.86-.95ZM18.25,34.45A2,2,0,1,0,20.19,31a2,2,0,0,0-1.94,3.41ZM15,40.15A2,2,0,0,0,17,36.74,2,2,0,1,0,15,40.15Zm2.54-2.84a2.62,2.62,0,0,1,.21-1.64,2.55,2.55,0,0,1,1.3-1l-.72-.37-1.49,2.62Zm.13-3.44a2.62,2.62,0,0,1-.21,1.64,2.55,2.55,0,0,1-1.3,1l.72.38,1.49-2.63Zm-2,2.9a7.88,7.88,0,0,1-2.58-1.45,5.18,5.18,0,0,1-1.44-2.15l-.69.49,4,3.56ZM10.2,34.06a8,8,0,0,1,2.58,1.45,5.09,5.09,0,0,1,1.43,2.15l.69-.49-4-3.56Zm7.35,4.65,5.09,1.6.06-.85a5.05,5.05,0,0,1-2.57-.13,8,8,0,0,1-2.57-1.48Zm5.14,1.59-5.08-1.59-.07.84a5.09,5.09,0,0,1,2.58.13,8.06,8.06,0,0,1,2.56,1.48Zm-3.9-9.23s-.86.19-1.25-.26-.17-1.38-.17-1.38l-.69.74,1.41,1.62ZM16,30.85s.86-.19,1.26.26.16,1.38.16,1.38l.69-.74-1.41-1.62Zm4.67,2.4,2.11.38.29-1s-.69.66-1.27.56-.87-.95-.87-.95Zm2.14.36-2.11-.38-.28,1s.68-.67,1.27-.56.86.95.86.95Zm-9-15.36a2,2,0,1,0,2.68-.73A2,2,0,0,0,13.78,18.25ZM8.07,15a2,2,0,1,0,2.68-.74A2,2,0,0,0,8.07,15Zm2.85,2.54a2.59,2.59,0,0,1,1.63.21,2.6,2.6,0,0,1,1,1.3l.37-.72-2.62-1.49Zm3.44.13a2.62,2.62,0,0,1-1.64-.21,2.6,2.6,0,0,1-1-1.3l-.37.72L14,18.38Zm-2.9-2a7.88,7.88,0,0,1,1.45-2.58,5.12,5.12,0,0,1,2.14-1.44L14.57,11l-3.56,4Zm2.71-5.46a8,8,0,0,1-1.45,2.58,5.09,5.09,0,0,1-2.15,1.43l.49.69,3.56-4ZM9.52,17.55l-1.6,5.09.85.06a5.05,5.05,0,0,1,.13-2.57,7.83,7.83,0,0,1,1.48-2.57ZM7.93,22.69l1.59-5.08-.84-.07a5,5,0,0,1-.14,2.58,7.92,7.92,0,0,1-1.47,2.56Zm9.23-3.9s-.19-.86.26-1.25,1.38-.17,1.38-.17l-.74-.69-1.62,1.41Zm.21-2.8s.2.86-.25,1.26-1.38.16-1.38.16l.74.69,1.62-1.41ZM15,20.66l-.38,2.11,1,.29s-.67-.69-.56-1.27.95-.87.95-.87Zm-.36,2.14L15,20.69l-1-.28s.66.68.56,1.27-.95.86-.95.86ZM34.45,30a2,2,0,0,0-.74-2.68A2,2,0,1,0,34.45,30Zm5.7,3.24a2,2,0,1,0-2.67.74A2,2,0,0,0,40.15,33.22Zm-2.84-2.54a2.62,2.62,0,0,1-1.64-.21,2.55,2.55,0,0,1-1-1.3l-.37.71,2.62,1.5Zm-3.44-.13a2.54,2.54,0,0,1,1.64.21,2.51,2.51,0,0,1,1,1.3l.38-.72-2.63-1.49Zm2.9,2a7.88,7.88,0,0,1-1.45,2.58,5.09,5.09,0,0,1-2.15,1.43l.49.7,3.56-4ZM34.06,38a8,8,0,0,1,1.45-2.58A5.09,5.09,0,0,1,37.66,34l-.49-.69-3.56,4Zm4.65-7.35,1.6-5.09-.85-.07a5.09,5.09,0,0,1-.13,2.58,7.92,7.92,0,0,1-1.48,2.56Zm1.59-5.14-1.59,5.08.84.07a5.09,5.09,0,0,1,.13-2.58,8.06,8.06,0,0,1,1.48-2.56Zm-9.23,3.9s.19.86-.26,1.25-1.38.17-1.38.17l.74.68,1.62-1.4Zm-.22,2.8s-.19-.87.26-1.26,1.38-.16,1.38-.16l-.74-.69-1.62,1.41Zm2.4-4.67.38-2.12-1-.28s.66.68.56,1.27-.95.86-.95.86Zm.36-2.15-.38,2.12,1,.28s-.67-.68-.56-1.27.95-.86.95-.86Zm.77-7.28a2,2,0,1,0-.71,2.68A2,2,0,0,0,34.38,18.14Zm5.68-3.3a2,2,0,1,0-.71,2.68A2,2,0,0,0,40.06,14.84ZM36.43,16a2.56,2.56,0,0,1-1,1.31,2.51,2.51,0,0,1-1.63.23l.43.68,2.61-1.52Zm-1.84,2.91a2.62,2.62,0,0,1,1-1.31,2.58,2.58,0,0,1,1.64-.22l-.44-.68-2.61,1.52Zm3.2-1.48A8,8,0,0,1,39.29,20a5,5,0,0,1,.16,2.57l.84-.07-1.64-5.07Zm3.36,5.08A7.7,7.7,0,0,1,39.65,20a5,5,0,0,1-.16-2.58l-.84.07,1.64,5.07Zm-4-7.72-3.59-3.93-.48.69A5.07,5.07,0,0,1,35.22,13a7.83,7.83,0,0,1,1.47,2.56Zm-3.64-4,3.59,3.93.48-.69a5.07,5.07,0,0,1-2.16-1.42,8,8,0,0,1-1.47-2.56Zm-1.28,9.94s.85.26,1,.85-.55,1.28-.55,1.28l1-.3-.4-2.11Zm2.32,1.59s-.85-.27-1-.85.55-1.28.55-1.28l-1,.29.4,2.11ZM31.7,18l-1.64-1.4-.73.7s.93-.24,1.38.15.27,1.26.27,1.26ZM30,16.57,31.66,18l.73-.69s-.93.24-1.38-.15-.27-1.26-.27-1.26ZM13.85,30.09a2,2,0,1,0,.71-2.68A2,2,0,0,0,13.85,30.09Zm-5.68,3.3a2,2,0,1,0,.71-2.68A2,2,0,0,0,8.17,33.39Zm3.63-1.18a2.58,2.58,0,0,1,1-1.31,2.58,2.58,0,0,1,1.64-.22L14,30,11.4,31.52Zm1.84-2.91a2.58,2.58,0,0,1-1,1.31,2.54,2.54,0,0,1-1.64.23l.43.68L14.05,30Zm-3.2,1.49a7.81,7.81,0,0,1-1.5-2.55,5,5,0,0,1-.16-2.58l-.84.08,1.64,5.07ZM7.08,25.7a8,8,0,0,1,1.5,2.55,5,5,0,0,1,.16,2.58l.84-.08L7.94,25.68Zm4,7.72,3.59,3.94.48-.69A5.19,5.19,0,0,1,13,35.25a7.83,7.83,0,0,1-1.47-2.56Zm3.64,4-3.59-3.93-.49.69a5,5,0,0,1,2.16,1.42,7.83,7.83,0,0,1,1.47,2.56ZM16,27.44s-.85-.27-1-.85.55-1.28.55-1.28l-1,.29.4,2.11ZM13.7,25.85s.85.26,1,.85S14.11,28,14.11,28l1-.3-.4-2.1Zm2.83,4.42,1.63,1.39L18.9,31s-.93.23-1.39-.15-.26-1.26-.26-1.26Zm1.67,1.39-1.63-1.4-.73.7s.92-.24,1.38.15.27,1.26.27,1.26Zm-.06-17.81a2,2,0,1,0,2.68.71A2,2,0,0,0,18.14,13.85Zm-3.3-5.68a2,2,0,1,0,2.68.71A2,2,0,0,0,14.84,8.17ZM16,11.8a2.58,2.58,0,0,1,1.31,1,2.54,2.54,0,0,1,.23,1.64l.68-.43L16.71,11.4Zm2.91,1.84a2.62,2.62,0,0,1-1.31-1A2.58,2.58,0,0,1,17.39,11l-.68.43,1.52,2.62Zm-1.48-3.2A7.81,7.81,0,0,1,20,8.94a5,5,0,0,1,2.57-.16l-.07-.84L17.42,9.58Zm5.08-3.36A7.89,7.89,0,0,1,20,8.58a5,5,0,0,1-2.58.16l.07.84,5.07-1.64Zm-7.72,4-3.93,3.59.69.48A5.07,5.07,0,0,1,13,13a7.83,7.83,0,0,1,2.56-1.47Zm-4,3.64,3.93-3.59-.69-.49a5,5,0,0,1-1.42,2.16,7.83,7.83,0,0,1-2.56,1.47ZM20.79,16s.26-.85.85-1,1.28.55,1.28.55l-.3-1-2.11.4Zm1.59-2.32s-.27.85-.85,1-1.28-.55-1.28-.55l.29,1,2.11-.4ZM18,16.53l-1.4,1.63.7.74s-.24-.93.15-1.39,1.26-.26,1.26-.26ZM16.57,18.2,18,16.57l-.69-.73s.24.92-.15,1.38-1.26.27-1.26.27ZM30.09,34.38a2,2,0,1,0-2.68-.71A2,2,0,0,0,30.09,34.38Zm3.3,5.68a2,2,0,1,0-2.68-.71A2,2,0,0,0,33.39,40.06Zm-1.18-3.63a2.17,2.17,0,0,1-1.53-2.64l-.68.43,1.52,2.61ZM29.3,34.59a2.58,2.58,0,0,1,1.31,1,2.54,2.54,0,0,1,.23,1.64l.68-.44L30,34.18Zm1.49,3.2a8,8,0,0,1-2.55,1.5,5,5,0,0,1-2.58.16l.08.84,5.07-1.64ZM25.7,41.15a7.81,7.81,0,0,1,2.55-1.5,5,5,0,0,1,2.58-.16l-.08-.84-5.07,1.64Zm7.72-4,3.94-3.59-.69-.48a5.19,5.19,0,0,1-1.42,2.16,7.83,7.83,0,0,1-2.56,1.47Zm4-3.64-3.93,3.59.69.48a5.07,5.07,0,0,1,1.42-2.16,8,8,0,0,1,2.56-1.47Zm-9.94-1.28s-.27.85-.85,1-1.28-.55-1.28-.55l.29,1,2.11-.4Zm-1.59,2.32s.26-.85.85-1,1.28.55,1.28.55l-.3-1-2.1.4Zm4.42-2.83,1.39-1.64L31,29.33s.23.93-.15,1.38-1.26.27-1.26.27ZM31.66,30l-1.4,1.63.7.73s-.24-.93.15-1.38,1.26-.27,1.26-.27Zm-7.53,6a2,2,0,1,0-2-2A2,2,0,0,0,24.13,36Zm0,6.57a2,2,0,1,0-2-2A2,2,0,0,0,24.13,42.56Zm.8-3.73a2.59,2.59,0,0,1-.62-1.53,2.55,2.55,0,0,1,.62-1.52l-.8,0v3Zm-1.59-3A2.53,2.53,0,0,1,24,37.3a2.58,2.58,0,0,1-.63,1.53l.81,0v-3ZM23,39.29a8,8,0,0,1-3,0,5,5,0,0,1-2.31-1.16l-.36.77,5.21,1.13Zm-6.09.35a8,8,0,0,1,3,0,5.14,5.14,0,0,1,2.31,1.16l.36-.77-5.21-1.12Zm8.7.41,5.21-1.13-.36-.77a5.1,5.1,0,0,1-2.31,1.16,8,8,0,0,1-3,0Zm5.25-1.16L25.67,40l.36.77a5.14,5.14,0,0,1,2.31-1.16,7.92,7.92,0,0,1,2.95,0Zm-7.95-6.1s-.66.59-1.22.4-.83-1.12-.83-1.12l-.23,1,2,.71ZM20.38,34s.66-.6,1.22-.4.83,1.12.83,1.12l.23-1-2-.71Zm5.25-.23,2-.71-.23-1s-.26.92-.82,1.12-1.22-.4-1.22-.4Zm2-.74-2,.71.23,1s.27-.92.83-1.12,1.22.4,1.22.4ZM12.23,24.13a2,2,0,1,0,2-2A2,2,0,0,0,12.23,24.13Zm-6.56,0a2,2,0,1,0,2-2A2,2,0,0,0,5.67,24.13Zm3.73.8a2.59,2.59,0,0,1,1.52-.62,2.59,2.59,0,0,1,1.53.62l0-.8h-3Zm3-1.59a2.58,2.58,0,0,1-1.53.63,2.57,2.57,0,0,1-1.52-.63l0,.81h3ZM8.93,23a7.86,7.86,0,0,1,0-3,5.07,5.07,0,0,1,1.15-2.31l-.76-.36L8.18,22.6Zm-.34-6.09a7.86,7.86,0,0,1,0,3A5.07,5.07,0,0,1,7.45,22.2l.76.36,1.13-5.21Zm-.41,8.7,1.13,5.21.76-.36a5.14,5.14,0,0,1-1.15-2.31,7.86,7.86,0,0,1,0-3Zm1.16,5.25L8.21,25.67,7.45,26A5.07,5.07,0,0,1,8.6,28.34a7.8,7.8,0,0,1,0,2.95Zm6.1-7.95s-.6-.66-.4-1.22,1.12-.83,1.12-.83l-1-.23-.71,2Zm-1.2-2.55s.59.66.4,1.22-1.12.83-1.12.83l1,.23.71-2Zm.23,5.25.71,2,1-.23s-.92-.26-1.12-.82.4-1.22.4-1.22Zm.74,2-.71-2-1,.23s.92.27,1.12.83-.4,1.22-.4,1.22ZM36,24.1a2,2,0,1,0-2,2A2,2,0,0,0,36,24.1Zm6.57,0a2,2,0,1,0-2,2A2,2,0,0,0,42.56,24.1Zm-3.73-.81a2.58,2.58,0,0,1-1.53.63,2.53,2.53,0,0,1-1.52-.63l0,.81h3Zm-3,1.6a2.53,2.53,0,0,1,1.52-.63,2.58,2.58,0,0,1,1.53.63l0-.81h-3Zm3.51.32a8,8,0,0,1,0,3,5.1,5.1,0,0,1-1.16,2.31l.77.36,1.13-5.21Zm.35,6.08a7.92,7.92,0,0,1,0-2.95A5.14,5.14,0,0,1,40.78,26L40,25.67l-1.12,5.21Zm.41-8.69-1.13-5.21-.77.36a5,5,0,0,1,1.16,2.31,8,8,0,0,1,0,3Zm-1.16-5.25L40,22.56l.77-.36a5.14,5.14,0,0,1-1.16-2.31,8,8,0,0,1,0-3Zm-6.1,8s.59.66.4,1.22-1.12.83-1.12.83l1,.23.71-2ZM34,27.85s-.6-.66-.4-1.22,1.12-.83,1.12-.83l-1-.23-.71,2Zm-.23-5.25-.71-2-1,.23s.92.27,1.12.83-.4,1.22-.4,1.22Zm-.74-2,.71,2,1-.23s-.92-.27-1.12-.83.4-1.22.4-1.22Z" style="fill:none;stroke:#ff6b00;stroke-linejoin:round;stroke-width:11.3385829925537px;opacity:0.25"/><path d="M26.06,24a2,2,0,1,1-2-2A2,2,0,0,1,26.06,24Zm-2-11.81a2,2,0,1,0,2,2A2,2,0,0,0,24.1,12.23Zm0-6.56a2,2,0,1,0,2,2A2,2,0,0,0,24.1,5.67ZM23.29,9.4a2.57,2.57,0,0,1,.63,1.52,2.58,2.58,0,0,1-.63,1.53l.81,0v-3Zm1.6,3a2.58,2.58,0,0,1-.63-1.53,2.57,2.57,0,0,1,.63-1.52l-.81,0v3Zm.32-3.52a7.86,7.86,0,0,1,3,0,5.14,5.14,0,0,1,2.31,1.15l.36-.76L25.63,8.18Zm6.08-.34a7.8,7.8,0,0,1-2.95,0A5.07,5.07,0,0,1,26,7.45l-.36.76,5.21,1.13ZM22.6,8.18,17.39,9.31l.36.76a5.07,5.07,0,0,1,2.31-1.15,7.86,7.86,0,0,1,3,0ZM17.35,9.34l5.21-1.13-.36-.76A5.07,5.07,0,0,1,19.89,8.6a7.86,7.86,0,0,1-3,0Zm8,6.1s.66-.6,1.22-.4.83,1.12.83,1.12l.23-1-2-.71Zm2.55-1.2s-.66.59-1.22.4-.83-1.12-.83-1.12l-.23,1,2,.71Zm-5.25.23-2,.71.23,1s.27-.92.83-1.12,1.22.4,1.22.4Zm-2,.74,2-.71-.23-1s-.27.92-.83,1.12-1.22-.4-1.22-.4ZM30,13.78a2,2,0,1,0,.73,2.68A2,2,0,0,0,30,13.78Zm3.24-5.71A2,2,0,1,0,34,10.75,2,2,0,0,0,33.22,8.07Zm-2.54,2.85a2.59,2.59,0,0,1-.21,1.63,2.6,2.6,0,0,1-1.3,1l.71.37,1.5-2.62Zm-.13,3.44a2.54,2.54,0,0,1,.21-1.64,2.56,2.56,0,0,1,1.3-1l-.72-.37L29.85,14Zm2-2.9a7.88,7.88,0,0,1,2.58,1.45,5,5,0,0,1,1.43,2.14l.7-.48L33.3,11ZM38,14.17a8,8,0,0,1-2.58-1.45A5.09,5.09,0,0,1,34,10.57l-.69.49,4,3.56ZM30.68,9.52l-5.09-1.6-.07.85a5.09,5.09,0,0,1,2.58.13,7.72,7.72,0,0,1,2.56,1.48ZM25.54,7.93l5.08,1.59.07-.84a5,5,0,0,1-2.58-.14,7.92,7.92,0,0,1-2.56-1.47Zm3.9,9.23s.86-.19,1.25.26.17,1.38.17,1.38l.68-.74-1.4-1.62Zm2.8.21s-.87.2-1.26-.25-.16-1.38-.16-1.38l-.69.74,1.41,1.62ZM27.57,15l-2.12-.38-.28,1s.68-.67,1.27-.56.86.95.86.95Zm-2.15-.36,2.12.38.28-1s-.68.66-1.27.56-.86-.95-.86-.95ZM18.25,34.45A2,2,0,1,0,20.19,31a2,2,0,0,0-1.94,3.41ZM15,40.15A2,2,0,0,0,17,36.74,2,2,0,1,0,15,40.15Zm2.54-2.84a2.62,2.62,0,0,1,.21-1.64,2.55,2.55,0,0,1,1.3-1l-.72-.37-1.49,2.62Zm.13-3.44a2.62,2.62,0,0,1-.21,1.64,2.55,2.55,0,0,1-1.3,1l.72.38,1.49-2.63Zm-2,2.9a7.88,7.88,0,0,1-2.58-1.45,5.18,5.18,0,0,1-1.44-2.15l-.69.49,4,3.56ZM10.2,34.06a8,8,0,0,1,2.58,1.45,5.09,5.09,0,0,1,1.43,2.15l.69-.49-4-3.56Zm7.35,4.65,5.09,1.6.06-.85a5.05,5.05,0,0,1-2.57-.13,8,8,0,0,1-2.57-1.48Zm5.14,1.59-5.08-1.59-.07.84a5.09,5.09,0,0,1,2.58.13,8.06,8.06,0,0,1,2.56,1.48Zm-3.9-9.23s-.86.19-1.25-.26-.17-1.38-.17-1.38l-.69.74,1.41,1.62ZM16,30.85s.86-.19,1.26.26.16,1.38.16,1.38l.69-.74-1.41-1.62Zm4.67,2.4,2.11.38.29-1s-.69.66-1.27.56-.87-.95-.87-.95Zm2.14.36-2.11-.38-.28,1s.68-.67,1.27-.56.86.95.86.95Zm-9-15.36a2,2,0,1,0,2.68-.73A2,2,0,0,0,13.78,18.25ZM8.07,15a2,2,0,1,0,2.68-.74A2,2,0,0,0,8.07,15Zm2.85,2.54a2.59,2.59,0,0,1,1.63.21,2.6,2.6,0,0,1,1,1.3l.37-.72-2.62-1.49Zm3.44.13a2.62,2.62,0,0,1-1.64-.21,2.6,2.6,0,0,1-1-1.3l-.37.72L14,18.38Zm-2.9-2a7.88,7.88,0,0,1,1.45-2.58,5.12,5.12,0,0,1,2.14-1.44L14.57,11l-3.56,4Zm2.71-5.46a8,8,0,0,1-1.45,2.58,5.09,5.09,0,0,1-2.15,1.43l.49.69,3.56-4ZM9.52,17.55l-1.6,5.09.85.06a5.05,5.05,0,0,1,.13-2.57,7.83,7.83,0,0,1,1.48-2.57ZM7.93,22.69l1.59-5.08-.84-.07a5,5,0,0,1-.14,2.58,7.92,7.92,0,0,1-1.47,2.56Zm9.23-3.9s-.19-.86.26-1.25,1.38-.17,1.38-.17l-.74-.69-1.62,1.41Zm.21-2.8s.2.86-.25,1.26-1.38.16-1.38.16l.74.69,1.62-1.41ZM15,20.66l-.38,2.11,1,.29s-.67-.69-.56-1.27.95-.87.95-.87Zm-.36,2.14L15,20.69l-1-.28s.66.68.56,1.27-.95.86-.95.86ZM34.45,30a2,2,0,0,0-.74-2.68A2,2,0,1,0,34.45,30Zm5.7,3.24a2,2,0,1,0-2.67.74A2,2,0,0,0,40.15,33.22Zm-2.84-2.54a2.62,2.62,0,0,1-1.64-.21,2.55,2.55,0,0,1-1-1.3l-.37.71,2.62,1.5Zm-3.44-.13a2.54,2.54,0,0,1,1.64.21,2.51,2.51,0,0,1,1,1.3l.38-.72-2.63-1.49Zm2.9,2a7.88,7.88,0,0,1-1.45,2.58,5.09,5.09,0,0,1-2.15,1.43l.49.7,3.56-4ZM34.06,38a8,8,0,0,1,1.45-2.58A5.09,5.09,0,0,1,37.66,34l-.49-.69-3.56,4Zm4.65-7.35,1.6-5.09-.85-.07a5.09,5.09,0,0,1-.13,2.58,7.92,7.92,0,0,1-1.48,2.56Zm1.59-5.14-1.59,5.08.84.07a5.09,5.09,0,0,1,.13-2.58,8.06,8.06,0,0,1,1.48-2.56Zm-9.23,3.9s.19.86-.26,1.25-1.38.17-1.38.17l.74.68,1.62-1.4Zm-.22,2.8s-.19-.87.26-1.26,1.38-.16,1.38-.16l-.74-.69-1.62,1.41Zm2.4-4.67.38-2.12-1-.28s.66.68.56,1.27-.95.86-.95.86Zm.36-2.15-.38,2.12,1,.28s-.67-.68-.56-1.27.95-.86.95-.86Zm.77-7.28a2,2,0,1,0-.71,2.68A2,2,0,0,0,34.38,18.14Zm5.68-3.3a2,2,0,1,0-.71,2.68A2,2,0,0,0,40.06,14.84ZM36.43,16a2.56,2.56,0,0,1-1,1.31,2.51,2.51,0,0,1-1.63.23l.43.68,2.61-1.52Zm-1.84,2.91a2.62,2.62,0,0,1,1-1.31,2.58,2.58,0,0,1,1.64-.22l-.44-.68-2.61,1.52Zm3.2-1.48A8,8,0,0,1,39.29,20a5,5,0,0,1,.16,2.57l.84-.07-1.64-5.07Zm3.36,5.08A7.7,7.7,0,0,1,39.65,20a5,5,0,0,1-.16-2.58l-.84.07,1.64,5.07Zm-4-7.72-3.59-3.93-.48.69A5.07,5.07,0,0,1,35.22,13a7.83,7.83,0,0,1,1.47,2.56Zm-3.64-4,3.59,3.93.48-.69a5.07,5.07,0,0,1-2.16-1.42,8,8,0,0,1-1.47-2.56Zm-1.28,9.94s.85.26,1,.85-.55,1.28-.55,1.28l1-.3-.4-2.11Zm2.32,1.59s-.85-.27-1-.85.55-1.28.55-1.28l-1,.29.4,2.11ZM31.7,18l-1.64-1.4-.73.7s.93-.24,1.38.15.27,1.26.27,1.26ZM30,16.57,31.66,18l.73-.69s-.93.24-1.38-.15-.27-1.26-.27-1.26ZM13.85,30.09a2,2,0,1,0,.71-2.68A2,2,0,0,0,13.85,30.09Zm-5.68,3.3a2,2,0,1,0,.71-2.68A2,2,0,0,0,8.17,33.39Zm3.63-1.18a2.58,2.58,0,0,1,1-1.31,2.58,2.58,0,0,1,1.64-.22L14,30,11.4,31.52Zm1.84-2.91a2.58,2.58,0,0,1-1,1.31,2.54,2.54,0,0,1-1.64.23l.43.68L14.05,30Zm-3.2,1.49a7.81,7.81,0,0,1-1.5-2.55,5,5,0,0,1-.16-2.58l-.84.08,1.64,5.07ZM7.08,25.7a8,8,0,0,1,1.5,2.55,5,5,0,0,1,.16,2.58l.84-.08L7.94,25.68Zm4,7.72,3.59,3.94.48-.69A5.19,5.19,0,0,1,13,35.25a7.83,7.83,0,0,1-1.47-2.56Zm3.64,4-3.59-3.93-.49.69a5,5,0,0,1,2.16,1.42,7.83,7.83,0,0,1,1.47,2.56ZM16,27.44s-.85-.27-1-.85.55-1.28.55-1.28l-1,.29.4,2.11ZM13.7,25.85s.85.26,1,.85S14.11,28,14.11,28l1-.3-.4-2.1Zm2.83,4.42,1.63,1.39L18.9,31s-.93.23-1.39-.15-.26-1.26-.26-1.26Zm1.67,1.39-1.63-1.4-.73.7s.92-.24,1.38.15.27,1.26.27,1.26Zm-.06-17.81a2,2,0,1,0,2.68.71A2,2,0,0,0,18.14,13.85Zm-3.3-5.68a2,2,0,1,0,2.68.71A2,2,0,0,0,14.84,8.17ZM16,11.8a2.58,2.58,0,0,1,1.31,1,2.54,2.54,0,0,1,.23,1.64l.68-.43L16.71,11.4Zm2.91,1.84a2.62,2.62,0,0,1-1.31-1A2.58,2.58,0,0,1,17.39,11l-.68.43,1.52,2.62Zm-1.48-3.2A7.81,7.81,0,0,1,20,8.94a5,5,0,0,1,2.57-.16l-.07-.84L17.42,9.58Zm5.08-3.36A7.89,7.89,0,0,1,20,8.58a5,5,0,0,1-2.58.16l.07.84,5.07-1.64Zm-7.72,4-3.93,3.59.69.48A5.07,5.07,0,0,1,13,13a7.83,7.83,0,0,1,2.56-1.47Zm-4,3.64,3.93-3.59-.69-.49a5,5,0,0,1-1.42,2.16,7.83,7.83,0,0,1-2.56,1.47ZM20.79,16s.26-.85.85-1,1.28.55,1.28.55l-.3-1-2.11.4Zm1.59-2.32s-.27.85-.85,1-1.28-.55-1.28-.55l.29,1,2.11-.4ZM18,16.53l-1.4,1.63.7.74s-.24-.93.15-1.39,1.26-.26,1.26-.26ZM16.57,18.2,18,16.57l-.69-.73s.24.92-.15,1.38-1.26.27-1.26.27ZM30.09,34.38a2,2,0,1,0-2.68-.71A2,2,0,0,0,30.09,34.38Zm3.3,5.68a2,2,0,1,0-2.68-.71A2,2,0,0,0,33.39,40.06Zm-1.18-3.63a2.17,2.17,0,0,1-1.53-2.64l-.68.43,1.52,2.61ZM29.3,34.59a2.58,2.58,0,0,1,1.31,1,2.54,2.54,0,0,1,.23,1.64l.68-.44L30,34.18Zm1.49,3.2a8,8,0,0,1-2.55,1.5,5,5,0,0,1-2.58.16l.08.84,5.07-1.64ZM25.7,41.15a7.81,7.81,0,0,1,2.55-1.5,5,5,0,0,1,2.58-.16l-.08-.84-5.07,1.64Zm7.72-4,3.94-3.59-.69-.48a5.19,5.19,0,0,1-1.42,2.16,7.83,7.83,0,0,1-2.56,1.47Zm4-3.64-3.93,3.59.69.48a5.07,5.07,0,0,1,1.42-2.16,8,8,0,0,1,2.56-1.47Zm-9.94-1.28s-.27.85-.85,1-1.28-.55-1.28-.55l.29,1,2.11-.4Zm-1.59,2.32s.26-.85.85-1,1.28.55,1.28.55l-.3-1-2.1.4Zm4.42-2.83,1.39-1.64L31,29.33s.23.93-.15,1.38-1.26.27-1.26.27ZM31.66,30l-1.4,1.63.7.73s-.24-.93.15-1.38,1.26-.27,1.26-.27Zm-7.53,6a2,2,0,1,0-2-2A2,2,0,0,0,24.13,36Zm0,6.57a2,2,0,1,0-2-2A2,2,0,0,0,24.13,42.56Zm.8-3.73a2.59,2.59,0,0,1-.62-1.53,2.55,2.55,0,0,1,.62-1.52l-.8,0v3Zm-1.59-3A2.53,2.53,0,0,1,24,37.3a2.58,2.58,0,0,1-.63,1.53l.81,0v-3ZM23,39.29a8,8,0,0,1-3,0,5,5,0,0,1-2.31-1.16l-.36.77,5.21,1.13Zm-6.09.35a8,8,0,0,1,3,0,5.14,5.14,0,0,1,2.31,1.16l.36-.77-5.21-1.12Zm8.7.41,5.21-1.13-.36-.77a5.1,5.1,0,0,1-2.31,1.16,8,8,0,0,1-3,0Zm5.25-1.16L25.67,40l.36.77a5.14,5.14,0,0,1,2.31-1.16,7.92,7.92,0,0,1,2.95,0Zm-7.95-6.1s-.66.59-1.22.4-.83-1.12-.83-1.12l-.23,1,2,.71ZM20.38,34s.66-.6,1.22-.4.83,1.12.83,1.12l.23-1-2-.71Zm5.25-.23,2-.71-.23-1s-.26.92-.82,1.12-1.22-.4-1.22-.4Zm2-.74-2,.71.23,1s.27-.92.83-1.12,1.22.4,1.22.4ZM12.23,24.13a2,2,0,1,0,2-2A2,2,0,0,0,12.23,24.13Zm-6.56,0a2,2,0,1,0,2-2A2,2,0,0,0,5.67,24.13Zm3.73.8a2.59,2.59,0,0,1,1.52-.62,2.59,2.59,0,0,1,1.53.62l0-.8h-3Zm3-1.59a2.58,2.58,0,0,1-1.53.63,2.57,2.57,0,0,1-1.52-.63l0,.81h3ZM8.93,23a7.86,7.86,0,0,1,0-3,5.07,5.07,0,0,1,1.15-2.31l-.76-.36L8.18,22.6Zm-.34-6.09a7.86,7.86,0,0,1,0,3A5.07,5.07,0,0,1,7.45,22.2l.76.36,1.13-5.21Zm-.41,8.7,1.13,5.21.76-.36a5.14,5.14,0,0,1-1.15-2.31,7.86,7.86,0,0,1,0-3Zm1.16,5.25L8.21,25.67,7.45,26A5.07,5.07,0,0,1,8.6,28.34a7.8,7.8,0,0,1,0,2.95Zm6.1-7.95s-.6-.66-.4-1.22,1.12-.83,1.12-.83l-1-.23-.71,2Zm-1.2-2.55s.59.66.4,1.22-1.12.83-1.12.83l1,.23.71-2Zm.23,5.25.71,2,1-.23s-.92-.26-1.12-.82.4-1.22.4-1.22Zm.74,2-.71-2-1,.23s.92.27,1.12.83-.4,1.22-.4,1.22ZM36,24.1a2,2,0,1,0-2,2A2,2,0,0,0,36,24.1Zm6.57,0a2,2,0,1,0-2,2A2,2,0,0,0,42.56,24.1Zm-3.73-.81a2.58,2.58,0,0,1-1.53.63,2.53,2.53,0,0,1-1.52-.63l0,.81h3Zm-3,1.6a2.53,2.53,0,0,1,1.52-.63,2.58,2.58,0,0,1,1.53.63l0-.81h-3Zm3.51.32a8,8,0,0,1,0,3,5.1,5.1,0,0,1-1.16,2.31l.77.36,1.13-5.21Zm.35,6.08a7.92,7.92,0,0,1,0-2.95A5.14,5.14,0,0,1,40.78,26L40,25.67l-1.12,5.21Zm.41-8.69-1.13-5.21-.77.36a5,5,0,0,1,1.16,2.31,8,8,0,0,1,0,3Zm-1.16-5.25L40,22.56l.77-.36a5.14,5.14,0,0,1-1.16-2.31,8,8,0,0,1,0-3Zm-6.1,8s.59.66.4,1.22-1.12.83-1.12.83l1,.23.71-2ZM34,27.85s-.6-.66-.4-1.22,1.12-.83,1.12-.83l-1-.23-.71,2Zm-.23-5.25-.71-2-1,.23s.92.27,1.12.83-.4,1.22-.4,1.22Zm-.74-2,.71,2,1-.23s-.92-.27-1.12-.83.4-1.22.4-1.22Z" style="fill:none;stroke:#fff;stroke-linejoin:round;stroke-width:5.66929149627686px"/><circle cx="24.22" cy="23.91" r="6.85" style="fill:#fff"/><circle cx="24.1" cy="24.04" r="1.96" style="fill:#ff6b00"/><circle cx="24.1" cy="14.2" r="1.96" style="fill:#ff6b00"/><circle cx="24.1" cy="7.63" r="1.96" style="fill:#ff6b00"/><path d="M24.1,9.4v3l-.81,0a2.58,2.58,0,0,0,.63-1.53,2.57,2.57,0,0,0-.63-1.52Z" style="fill:#ff6b00"/><path d="M24.08,12.45v-3l.81,0a2.57,2.57,0,0,0-.63,1.52,2.58,2.58,0,0,0,.63,1.53Z" style="fill:#ff6b00"/><path d="M25.63,8.18l5.21,1.13-.36.76a5.14,5.14,0,0,0-2.31-1.15,7.86,7.86,0,0,0-3,0Z" style="fill:#ff6b00"/><path d="M30.88,9.34,25.67,8.21,26,7.45A5.07,5.07,0,0,0,28.34,8.6a7.8,7.8,0,0,0,2.95,0Z" style="fill:#ff6b00"/><path d="M22.6,8.18,17.39,9.31l.36.76a5.07,5.07,0,0,1,2.31-1.15,7.86,7.86,0,0,1,3,0Z" style="fill:#ff6b00"/><path d="M17.35,9.34l5.21-1.13-.36-.76A5.07,5.07,0,0,1,19.89,8.6a7.86,7.86,0,0,1-3,0Z" style="fill:#ff6b00"/><path d="M25.55,14.47l2,.71-.23,1s-.26-.92-.83-1.12-1.22.4-1.22.4Z" style="fill:#ff6b00"/><path d="M27.59,15.21l-2-.71.23-1s.26.92.83,1.12,1.22-.4,1.22-.4Z" style="fill:#ff6b00"/><path d="M22.6,14.47l-2,.71.23,1s.27-.92.83-1.12,1.22.4,1.22.4Z" style="fill:#ff6b00"/><path d="M20.56,15.21l2-.71-.23-1s-.27.92-.83,1.12-1.22-.4-1.22-.4Z" style="fill:#ff6b00"/><circle cx="29.01" cy="15.49" r="1.96" style="fill:#ff6b00"/><circle cx="32.25" cy="9.78" r="1.96" style="fill:#ff6b00"/><path d="M31.38,11.32l-1.5,2.62-.71-.37a2.6,2.6,0,0,0,1.3-1,2.59,2.59,0,0,0,.21-1.63Z" style="fill:#ff6b00"/><path d="M29.85,14l1.49-2.63.72.37a2.56,2.56,0,0,0-1.3,1,2.54,2.54,0,0,0-.21,1.64Z" style="fill:#ff6b00"/><path d="M33.3,11l4,3.56-.7.48a5,5,0,0,0-1.43-2.14,7.88,7.88,0,0,0-2.58-1.45Z" style="fill:#ff6b00"/><path d="M37.3,14.62l-4-3.56.69-.49a5.09,5.09,0,0,0,1.43,2.15A8,8,0,0,0,38,14.17Z" style="fill:#ff6b00"/><path d="M30.68,9.52l-5.09-1.6-.07.85a5.09,5.09,0,0,1,2.58.13,7.72,7.72,0,0,1,2.56,1.48Z" style="fill:#ff6b00"/><path d="M25.54,7.93l5.08,1.59.07-.84a5,5,0,0,1-2.58-.14,7.92,7.92,0,0,1-2.56-1.47Z" style="fill:#ff6b00"/><path d="M30.14,16.44l1.4,1.62-.68.74s.22-.93-.17-1.38-1.25-.26-1.25-.26Z" style="fill:#ff6b00"/><path d="M31.54,18.1l-1.41-1.62.69-.74s-.23.93.16,1.38,1.26.25,1.26.25Z" style="fill:#ff6b00"/><path d="M27.57,15l-2.12-.38-.28,1s.68-.67,1.27-.56.86.95.86.95Z" style="fill:#ff6b00"/><path d="M25.42,14.62l2.12.38.28-1s-.68.66-1.27.56-.86-.95-.86-.95Z" style="fill:#ff6b00"/><circle cx="19.22" cy="32.74" r="1.96" style="fill:#ff6b00"/><circle cx="15.98" cy="38.45" r="1.96" style="fill:#ff6b00"/><path d="M16.85,36.91l1.49-2.62.72.37a2.55,2.55,0,0,0-1.3,1,2.62,2.62,0,0,0-.21,1.64Z" style="fill:#ff6b00"/><path d="M18.38,34.27,16.89,36.9l-.72-.38a2.55,2.55,0,0,0,1.3-1,2.62,2.62,0,0,0,.21-1.64Z" style="fill:#ff6b00"/><path d="M14.92,37.22l-4-3.56.69-.49a5.18,5.18,0,0,0,1.44,2.15,7.88,7.88,0,0,0,2.58,1.45Z" style="fill:#ff6b00"/><path d="M10.93,33.61l4,3.56-.69.49a5.09,5.09,0,0,0-1.43-2.15,8,8,0,0,0-2.58-1.45Z" style="fill:#ff6b00"/><path d="M17.55,38.71l5.09,1.6.06-.85a5.05,5.05,0,0,1-2.57-.13,8,8,0,0,1-2.57-1.48Z" style="fill:#ff6b00"/><path d="M22.69,40.3l-5.08-1.59-.07.84a5.09,5.09,0,0,1,2.58.13,8.06,8.06,0,0,1,2.56,1.48Z" style="fill:#ff6b00"/><path d="M18.09,31.79l-1.41-1.62.69-.74s-.23.93.17,1.38,1.25.26,1.25.26Z" style="fill:#ff6b00"/><path d="M16.69,30.13l1.41,1.62-.69.74s.23-.93-.16-1.38S16,30.85,16,30.85Z" style="fill:#ff6b00"/><path d="M20.66,33.25l2.11.38.29-1s-.69.66-1.27.56-.87-.95-.87-.95Z" style="fill:#ff6b00"/><path d="M22.8,33.61l-2.11-.38-.28,1s.68-.67,1.27-.56.86.95.86.95Z" style="fill:#ff6b00"/><circle cx="15.49" cy="19.22" r="1.96" style="fill:#ff6b00"/><circle cx="9.78" cy="15.98" r="1.96" style="fill:#ff6b00"/><path d="M11.32,16.85l2.62,1.49-.37.72a2.6,2.6,0,0,0-1-1.3,2.59,2.59,0,0,0-1.63-.21Z" style="fill:#ff6b00"/><path d="M14,18.38l-2.63-1.49.37-.72a2.6,2.6,0,0,0,1,1.3,2.62,2.62,0,0,0,1.64.21Z" style="fill:#ff6b00"/><path d="M11,14.92l3.56-4,.48.69a5.12,5.12,0,0,0-2.14,1.44,7.88,7.88,0,0,0-1.45,2.58Z" style="fill:#ff6b00"/><path d="M14.62,10.93l-3.56,4-.49-.69a5.09,5.09,0,0,0,2.15-1.43,8,8,0,0,0,1.45-2.58Z" style="fill:#ff6b00"/><path d="M9.52,17.55l-1.6,5.09.85.06a5.05,5.05,0,0,1,.13-2.57,7.83,7.83,0,0,1,1.48-2.57Z" style="fill:#ff6b00"/><path d="M7.93,22.69l1.59-5.08-.84-.07a5,5,0,0,1-.14,2.58,7.92,7.92,0,0,1-1.47,2.56Z" style="fill:#ff6b00"/><path d="M16.44,18.09l1.62-1.41.74.69s-.93-.23-1.38.17-.26,1.25-.26,1.25Z" style="fill:#ff6b00"/><path d="M18.1,16.69,16.48,18.1l-.74-.69s.93.23,1.38-.16.25-1.26.25-1.26Z" style="fill:#ff6b00"/><path d="M15,20.66l-.38,2.11,1,.29s-.67-.69-.56-1.27.95-.87.95-.87Z" style="fill:#ff6b00"/><path d="M14.62,22.8,15,20.69l-1-.28s.66.68.56,1.27-.95.86-.95.86Z" style="fill:#ff6b00"/><circle cx="32.74" cy="29.01" r="1.96" style="fill:#ff6b00"/><circle cx="38.45" cy="32.25" r="1.96" style="fill:#ff6b00"/><path d="M36.91,31.38l-2.62-1.5.37-.71a2.55,2.55,0,0,0,1,1.3,2.62,2.62,0,0,0,1.64.21Z" style="fill:#ff6b00"/><path d="M34.27,29.85l2.63,1.49-.38.72a2.51,2.51,0,0,0-1-1.3,2.54,2.54,0,0,0-1.64-.21Z" style="fill:#ff6b00"/><path d="M37.22,33.3l-3.56,4-.49-.7a5.09,5.09,0,0,0,2.15-1.43,7.88,7.88,0,0,0,1.45-2.58Z" style="fill:#ff6b00"/><path d="M33.61,37.3l3.56-4,.49.69a5.09,5.09,0,0,0-2.15,1.43A8,8,0,0,0,34.06,38Z" style="fill:#ff6b00"/><path d="M38.71,30.68l1.6-5.09-.85-.07a5.09,5.09,0,0,1-.13,2.58,7.92,7.92,0,0,1-1.48,2.56Z" style="fill:#ff6b00"/><path d="M40.3,25.54l-1.59,5.08.84.07a5.09,5.09,0,0,1,.13-2.58,8.06,8.06,0,0,1,1.48-2.56Z" style="fill:#ff6b00"/><path d="M31.79,30.14l-1.62,1.4-.74-.68s.93.22,1.38-.17.26-1.25.26-1.25Z" style="fill:#ff6b00"/><path d="M30.13,31.54l1.62-1.41.74.69s-.93-.23-1.38.16-.26,1.26-.26,1.26Z" style="fill:#ff6b00"/><path d="M33.25,27.57l.38-2.12-1-.28s.66.68.56,1.27-.95.86-.95.86Z" style="fill:#ff6b00"/><path d="M33.61,25.42l-.38,2.12,1,.28s-.67-.68-.56-1.27.95-.86.95-.86Z" style="fill:#ff6b00"/><circle cx="32.68" cy="19.12" r="1.96" style="fill:#ff6b00"/><circle cx="38.36" cy="15.83" r="1.96" style="fill:#ff6b00"/><path d="M36.83,16.71l-2.61,1.52-.43-.68a2.51,2.51,0,0,0,1.63-.23,2.56,2.56,0,0,0,1-1.31Z" style="fill:#ff6b00"/><path d="M34.18,18.23l2.61-1.52.44.68a2.58,2.58,0,0,0-1.64.22,2.62,2.62,0,0,0-1,1.31Z" style="fill:#ff6b00"/><path d="M38.65,17.42l1.64,5.07-.84.07A5,5,0,0,0,39.29,20a8,8,0,0,0-1.5-2.55Z" style="fill:#ff6b00"/><path d="M40.29,22.54l-1.64-5.07.84-.07A5,5,0,0,0,39.65,20a7.7,7.7,0,0,0,1.5,2.54Z" style="fill:#ff6b00"/><path d="M37.13,14.8l-3.59-3.93-.48.69A5.07,5.07,0,0,1,35.22,13a7.83,7.83,0,0,1,1.47,2.56Z" style="fill:#ff6b00"/><path d="M33.49,10.85l3.59,3.93.48-.69a5.07,5.07,0,0,1-2.16-1.42,8,8,0,0,1-1.47-2.56Z" style="fill:#ff6b00"/><path d="M33.18,20.51l.4,2.11-1,.3s.66-.69.55-1.28-1-.85-1-.85Z" style="fill:#ff6b00"/><path d="M33.56,22.65l-.4-2.11,1-.29s-.66.69-.55,1.28,1,.85,1,.85Z" style="fill:#ff6b00"/><path d="M31.7,18l-1.64-1.4-.73.7s.93-.24,1.38.15.27,1.26.27,1.26Z" style="fill:#ff6b00"/><path d="M30,16.57,31.66,18l.73-.69s-.93.24-1.38-.15-.27-1.26-.27-1.26Z" style="fill:#ff6b00"/><circle cx="15.54" cy="29.11" r="1.96" style="fill:#ff6b00"/><circle cx="9.87" cy="32.4" r="1.96" style="fill:#ff6b00"/><path d="M11.4,31.52,14,30l.43.68a2.58,2.58,0,0,0-1.64.22,2.58,2.58,0,0,0-1,1.31Z" style="fill:#ff6b00"/><path d="M14.05,30l-2.62,1.52L11,30.84a2.54,2.54,0,0,0,1.64-.23,2.58,2.58,0,0,0,1-1.31Z" style="fill:#ff6b00"/><path d="M9.58,30.81,7.94,25.74l.84-.08a5,5,0,0,0,.16,2.58,7.81,7.81,0,0,0,1.5,2.55Z" style="fill:#ff6b00"/><path d="M7.94,25.68l1.64,5.07-.84.08a5,5,0,0,0-.16-2.58,8,8,0,0,0-1.5-2.55Z" style="fill:#ff6b00"/><path d="M11.1,33.42l3.59,3.94.48-.69A5.19,5.19,0,0,1,13,35.25a7.83,7.83,0,0,1-1.47-2.56Z" style="fill:#ff6b00"/><path d="M14.74,37.38l-3.59-3.93-.49.69a5,5,0,0,1,2.16,1.42,7.83,7.83,0,0,1,1.47,2.56Z" style="fill:#ff6b00"/><path d="M15.05,27.71l-.4-2.11,1-.29s-.66.69-.55,1.28,1,.85,1,.85Z" style="fill:#ff6b00"/><path d="M14.67,25.58l.4,2.1-1,.3s.66-.69.55-1.28-1-.85-1-.85Z" style="fill:#ff6b00"/><path d="M16.53,30.27l1.63,1.39L18.9,31s-.93.23-1.39-.15-.26-1.26-.26-1.26Z" style="fill:#ff6b00"/><path d="M18.2,31.66l-1.63-1.4-.73.7s.92-.24,1.38.15.27,1.26.27,1.26Z" style="fill:#ff6b00"/><circle cx="19.12" cy="15.54" r="1.96" style="fill:#ff6b00"/><circle cx="15.83" cy="9.87" r="1.96" style="fill:#ff6b00"/><path d="M16.71,11.4,18.23,14l-.68.43a2.54,2.54,0,0,0-.23-1.64,2.58,2.58,0,0,0-1.31-1Z" style="fill:#ff6b00"/><path d="M18.23,14.05l-1.52-2.62.68-.43a2.58,2.58,0,0,0,.22,1.64,2.62,2.62,0,0,0,1.31,1Z" style="fill:#ff6b00"/><path d="M17.42,9.58l5.07-1.64.07.84A5,5,0,0,0,20,8.94a7.81,7.81,0,0,0-2.55,1.5Z" style="fill:#ff6b00"/><path d="M22.54,7.94,17.47,9.58l-.07-.84A5,5,0,0,0,20,8.58a7.89,7.89,0,0,0,2.54-1.5Z" style="fill:#ff6b00"/><path d="M14.8,11.1l-3.93,3.59.69.48A5.07,5.07,0,0,1,13,13a7.83,7.83,0,0,1,2.56-1.47Z" style="fill:#ff6b00"/><path d="M10.85,14.74l3.93-3.59-.69-.49a5,5,0,0,1-1.42,2.16,7.83,7.83,0,0,1-2.56,1.47Z" style="fill:#ff6b00"/><path d="M20.51,15.05l2.11-.4.3,1s-.69-.66-1.28-.55-.85,1-.85,1Z" style="fill:#ff6b00"/><path d="M22.65,14.67l-2.11.4-.29-1s.69.66,1.28.55.85-1,.85-1Z" style="fill:#ff6b00"/><path d="M18,16.53l-1.4,1.63.7.74s-.24-.93.15-1.39,1.26-.26,1.26-.26Z" style="fill:#ff6b00"/><path d="M16.57,18.2,18,16.57l-.69-.73s.24.92-.15,1.38-1.26.27-1.26.27Z" style="fill:#ff6b00"/><circle cx="29.11" cy="32.68" r="1.96" style="fill:#ff6b00"/><circle cx="32.4" cy="38.36" r="1.96" style="fill:#ff6b00"/><path d="M31.52,36.83,30,34.22l.68-.43a2.17,2.17,0,0,0,1.53,2.64Z" style="fill:#ff6b00"/><path d="M30,34.18l1.52,2.61-.68.44a2.54,2.54,0,0,0-.23-1.64,2.58,2.58,0,0,0-1.31-1Z" style="fill:#ff6b00"/><path d="M30.81,38.65l-5.07,1.64-.08-.84a5,5,0,0,0,2.58-.16,8,8,0,0,0,2.55-1.5Z" style="fill:#ff6b00"/><path d="M25.68,40.29l5.07-1.64.08.84a5,5,0,0,0-2.58.16,7.81,7.81,0,0,0-2.55,1.5Z" style="fill:#ff6b00"/><path d="M33.42,37.13l3.94-3.59-.69-.48a5.19,5.19,0,0,1-1.42,2.16,7.83,7.83,0,0,1-2.56,1.47Z" style="fill:#ff6b00"/><path d="M37.38,33.49l-3.93,3.59.69.48a5.07,5.07,0,0,1,1.42-2.16,8,8,0,0,1,2.56-1.47Z" style="fill:#ff6b00"/><path d="M27.71,33.18l-2.11.4-.29-1s.69.66,1.28.55.85-1,.85-1Z" style="fill:#ff6b00"/><path d="M25.58,33.56l2.1-.4.3,1s-.69-.66-1.28-.55-.85,1-.85,1Z" style="fill:#ff6b00"/><path d="M30.27,31.7l1.39-1.64L31,29.33s.23.93-.15,1.38-1.26.27-1.26.27Z" style="fill:#ff6b00"/><path d="M31.66,30l-1.4,1.63.7.73s-.24-.93.15-1.38,1.26-.27,1.26-.27Z" style="fill:#ff6b00"/><circle cx="24.13" cy="34.03" r="1.96" style="fill:#ff6b00"/><circle cx="24.13" cy="40.6" r="1.96" style="fill:#ff6b00"/><path d="M24.13,38.83v-3l.8,0a2.55,2.55,0,0,0-.62,1.52,2.59,2.59,0,0,0,.62,1.53Z" style="fill:#ff6b00"/><path d="M24.15,35.78v3l-.81,0A2.58,2.58,0,0,0,24,37.3a2.53,2.53,0,0,0-.63-1.52Z" style="fill:#ff6b00"/><path d="M22.6,40.05l-5.21-1.13.36-.77a5,5,0,0,0,2.31,1.16,8,8,0,0,0,3,0Z" style="fill:#ff6b00"/><path d="M17.35,38.89,22.56,40l-.36.77a5.14,5.14,0,0,0-2.31-1.16,8,8,0,0,0-3,0Z" style="fill:#ff6b00"/><path d="M25.63,40.05l5.21-1.13-.36-.77a5.1,5.1,0,0,1-2.31,1.16,8,8,0,0,1-3,0Z" style="fill:#ff6b00"/><path d="M30.88,38.89,25.67,40l.36.77a5.14,5.14,0,0,1,2.31-1.16,7.92,7.92,0,0,1,2.95,0Z" style="fill:#ff6b00"/><path d="M22.67,33.76l-2-.71.23-1s.26.92.83,1.12,1.22-.4,1.22-.4Z" style="fill:#ff6b00"/><path d="M20.63,33l2,.71-.23,1s-.27-.92-.83-1.12-1.22.4-1.22.4Z" style="fill:#ff6b00"/><path d="M25.63,33.76l2-.71-.23-1s-.26.92-.82,1.12-1.22-.4-1.22-.4Z" style="fill:#ff6b00"/><path d="M27.67,33l-2,.71.23,1s.27-.92.83-1.12,1.22.4,1.22.4Z" style="fill:#ff6b00"/><circle cx="14.2" cy="24.13" r="1.96" style="fill:#ff6b00"/><circle cx="7.63" cy="24.13" r="1.96" style="fill:#ff6b00"/><path d="M9.4,24.13h3l0,.8a2.59,2.59,0,0,0-1.53-.62,2.59,2.59,0,0,0-1.52.62Z" style="fill:#ff6b00"/><path d="M12.45,24.15h-3l0-.81a2.57,2.57,0,0,0,1.52.63,2.58,2.58,0,0,0,1.53-.63Z" style="fill:#ff6b00"/><path d="M8.18,22.6l1.13-5.21.76.36a5.07,5.07,0,0,0-1.15,2.31,7.86,7.86,0,0,0,0,3Z" style="fill:#ff6b00"/><path d="M9.34,17.35,8.21,22.56l-.76-.36A5.07,5.07,0,0,0,8.6,19.89a7.86,7.86,0,0,0,0-3Z" style="fill:#ff6b00"/><path d="M8.18,25.63l1.13,5.21.76-.36a5.14,5.14,0,0,1-1.15-2.31,7.86,7.86,0,0,1,0-3Z" style="fill:#ff6b00"/><path d="M9.34,30.88,8.21,25.67,7.45,26A5.07,5.07,0,0,1,8.6,28.34a7.8,7.8,0,0,1,0,2.95Z" style="fill:#ff6b00"/><path d="M14.47,22.67l.71-2,1,.23s-.92.26-1.12.83.4,1.22.4,1.22Z" style="fill:#ff6b00"/><path d="M15.21,20.63l-.71,2-1-.23s.92-.27,1.12-.83-.4-1.22-.4-1.22Z" style="fill:#ff6b00"/><path d="M14.47,25.63l.71,2,1-.23s-.92-.26-1.12-.82.4-1.22.4-1.22Z" style="fill:#ff6b00"/><path d="M15.21,27.67l-.71-2-1,.23s.92.27,1.12.83-.4,1.22-.4,1.22Z" style="fill:#ff6b00"/><circle cx="34.03" cy="24.1" r="1.96" style="fill:#ff6b00"/><circle cx="40.6" cy="24.1" r="1.96" style="fill:#ff6b00"/><path d="M38.83,24.1h-3l0-.81a2.53,2.53,0,0,0,1.52.63,2.58,2.58,0,0,0,1.53-.63Z" style="fill:#ff6b00"/><path d="M35.78,24.08h3l0,.81a2.58,2.58,0,0,0-1.53-.63,2.53,2.53,0,0,0-1.52.63Z" style="fill:#ff6b00"/><path d="M40.05,25.63l-1.13,5.21-.77-.36a5.1,5.1,0,0,0,1.16-2.31,8,8,0,0,0,0-3Z" style="fill:#ff6b00"/><path d="M38.89,30.88,40,25.67l.77.36a5.14,5.14,0,0,0-1.16,2.31,7.92,7.92,0,0,0,0,2.95Z" style="fill:#ff6b00"/><path d="M40.05,22.6l-1.13-5.21-.77.36a5,5,0,0,1,1.16,2.31,8,8,0,0,1,0,3Z" style="fill:#ff6b00"/><path d="M38.89,17.35,40,22.56l.77-.36a5.14,5.14,0,0,1-1.16-2.31,8,8,0,0,1,0-3Z" style="fill:#ff6b00"/><path d="M33.76,25.55l-.71,2-1-.23s.92-.26,1.12-.83-.4-1.22-.4-1.22Z" style="fill:#ff6b00"/><path d="M33,27.59l.71-2,1,.23s-.92.26-1.12.83.4,1.22.4,1.22Z" style="fill:#ff6b00"/><path d="M33.76,22.6l-.71-2-1,.23s.92.27,1.12.83-.4,1.22-.4,1.22Z" style="fill:#ff6b00"/><path d="M33,20.56l.71,2,1-.23s-.92-.27-1.12-.83.4-1.22.4-1.22Z" style="fill:#ff6b00"/></svg>